<svg width="368" height="298" viewBox="0 0 368 298" fill="none" xmlns="http://www.w3.org/2000/svg">
<path d="M294.893 111.736C296.004 92.88 293.919 73.9714 288.726 55.81C288.552 55.2033 288.226 54.6509 287.779 54.2045C287.333 53.7581 286.781 53.4323 286.174 53.2576C268.012 48.0697 249.103 45.9896 230.248 47.1052L215.732 32.5755C211.596 28.4382 206.685 25.1563 201.28 22.9172C195.875 20.6781 190.082 19.5256 184.232 19.5256C178.382 19.5256 172.589 20.6781 167.184 22.9172C161.779 25.1563 156.868 28.4382 152.732 32.5755L138.209 47.1052C119.353 45.9941 100.444 48.0803 82.2829 53.2756C81.6771 53.4502 81.1256 53.7755 80.6798 54.2213C80.234 54.6671 79.9086 55.2187 79.7341 55.8244C74.5374 73.9838 72.4535 92.892 73.5709 111.747L59.0484 126.266C54.9115 130.403 51.63 135.314 49.3912 140.718C47.1523 146.123 46 151.916 46 157.766C46 163.617 47.1523 169.409 49.3912 174.814C51.63 180.219 54.9115 185.13 59.0484 189.267L73.5709 203.789C72.4531 222.643 74.537 241.55 79.7341 259.708C79.9085 260.315 80.2337 260.867 80.6794 261.314C81.1251 261.761 81.6768 262.088 82.2829 262.264C100.444 267.457 119.353 269.542 138.209 268.431L152.732 282.95C156.868 287.087 161.779 290.369 167.184 292.608C172.589 294.847 178.382 296 184.232 296C190.082 296 195.875 294.847 201.28 292.608C206.685 290.369 211.596 287.087 215.732 282.95L230.248 268.431C249.104 269.547 268.013 267.463 286.174 262.268C286.78 262.094 287.332 261.768 287.779 261.323C288.225 260.877 288.551 260.325 288.726 259.719C293.919 241.556 296.004 222.647 294.893 203.789L309.412 189.267C313.55 185.13 316.832 180.22 319.071 174.815C321.311 169.41 322.463 163.617 322.463 157.766C322.463 151.916 321.311 146.123 319.071 140.718C316.832 135.313 313.55 130.402 309.412 126.266L294.893 111.736Z" fill="#45E0A8" stroke="white" stroke-width="2" stroke-miterlimit="10" stroke-linejoin="round"/>
<mask id="mask0" style="mask-type:alpha" maskUnits="userSpaceOnUse" x="45" y="0" width="279" height="297">
<path d="M294.893 111.737C296.004 92.8801 293.919 73.9716 288.726 55.8102C288.552 55.2035 288.226 54.6511 287.779 54.2046C287.333 53.7582 286.781 53.4324 286.174 53.2578C283.965 39.2859 305.396 3.14513 286.541 4.26073L224.217 1.17017C215.46 1.17027 195.887 1.1703 190.221 1.17019C184.817 -1.06892 190.082 19.5258 184.232 19.5258C178.382 19.5258 172.589 20.6783 167.184 22.9174C161.779 25.1565 156.868 28.4384 152.732 32.5757L138.209 47.1054C119.353 45.9942 100.444 48.0805 82.2829 53.2758C81.6771 53.4503 81.1256 53.7757 80.6798 54.2215C80.234 54.6673 79.9086 55.2188 79.7341 55.8246C74.5374 73.9839 72.4535 92.8922 73.5709 111.747L59.0484 126.266C54.9115 130.403 51.63 135.314 49.3912 140.719C47.1523 146.123 46 151.916 46 157.766C46 163.617 47.1523 169.41 49.3912 174.814C51.63 180.219 54.9115 185.13 59.0484 189.267L73.5709 203.789C72.4531 222.643 74.537 241.55 79.7341 259.708C79.9085 260.315 80.2337 260.868 80.6794 261.315C81.1251 261.761 81.6768 262.088 82.2829 262.264C100.444 267.457 119.353 269.542 138.209 268.431L152.732 282.95C156.868 287.087 161.779 290.369 167.184 292.608C172.589 294.848 178.382 296 184.232 296C190.082 296 195.875 294.848 201.28 292.608C206.685 290.369 211.596 287.087 215.732 282.95L230.248 268.431C249.104 269.547 268.013 267.463 286.174 262.268C286.78 262.094 287.332 261.768 287.779 261.323C288.225 260.877 288.551 260.325 288.726 259.719C293.919 241.556 296.004 222.647 294.893 203.789L309.412 189.267C313.55 185.131 316.832 180.22 319.071 174.815C321.311 169.41 322.463 163.617 322.463 157.766C322.463 151.916 321.311 146.123 319.071 140.718C316.832 135.313 313.55 130.402 309.412 126.266L294.893 111.737Z" fill="#B780FF" stroke="white" stroke-width="2" stroke-miterlimit="10" stroke-linejoin="round"/>
</mask>
<g mask="url(#mask0)">
<path d="M232.091 62.6754C248.139 24.1552 265.189 1.98982 280.428 8.25027C303.897 17.8947 235.651 118.411 258.655 128.401C270.438 133.517 280.572 106.081 287.697 111.038C297.859 118.127 259.487 183.993 271.666 191.232C279.463 195.866 286.206 181.595 292.024 183.773C302.485 187.686 269.257 272.377 284.611 268.644" fill="#45E0A8"/>
<path d="M276.209 6.85713C266.093 5.21912 222.007 2.3715 207.089 1.6947C204.641 1.58653 202.243 2.41563 200.385 4.01311C191.321 11.7712 176.064 36.1433 169.785 55.0327L231.752 66.2143" fill="#45E0A8"/>
<path d="M276.209 6.85713C266.093 5.21912 222.007 2.3715 207.089 1.6947C204.641 1.58653 202.243 2.41563 200.385 4.01311C191.321 11.7712 176.064 36.1433 169.785 55.0327L231.752 66.2143" stroke="black" stroke-width="1.2" stroke-linecap="round" stroke-linejoin="round"/>
<path d="M260.192 128.89L225.668 125.002" stroke="black" stroke-width="1.2" stroke-linecap="round" stroke-linejoin="round"/>
<path d="M274.171 192.114L211.531 185.098C211.007 185.039 210.51 184.836 210.095 184.511C209.68 184.186 209.363 183.753 209.18 183.258V183.258" stroke="black" stroke-width="1.2" stroke-linecap="round" stroke-linejoin="round"/>
<path d="M225.888 186.707C222.384 194.484 220.086 202.75 219.073 211.22" stroke="black" stroke-width="1.2" stroke-linecap="round" stroke-linejoin="round"/>
<path d="M270.611 139.788L222.687 134.427" stroke="black" stroke-width="1.2" stroke-linecap="round" stroke-linejoin="round"/>
<path d="M234.027 60.4434L233.444 62.157L230.489 85.3159C234.809 85.7623 242.009 86.6623 247.175 87.2456C247.908 87.3278 248.648 87.1675 249.281 86.789C249.914 86.4106 250.406 85.835 250.681 85.1503C253.586 77.9251 260.592 60.7674 264.12 51.9761C264.316 51.4895 264.396 50.9639 264.353 50.441C264.311 49.918 264.146 49.4123 263.874 48.9641C263.601 48.5159 263.227 48.1375 262.783 47.8592C262.338 47.5809 261.834 47.4102 261.312 47.3609C255.152 46.7453 246.707 46.0253 240.392 45.4097C237.573 50.7053 236.004 54.5609 234.027 60.4434Z" fill="black" stroke="black" stroke-width="1.2" stroke-linecap="round" stroke-linejoin="round"/>
<path d="M241.688 114.494L216.301 111.747" stroke="black" stroke-width="1.2" stroke-linecap="round" stroke-linejoin="round"/>
<path d="M268.84 39.34L244.18 36.9963" stroke="black" stroke-width="1.2" stroke-linecap="round" stroke-linejoin="round"/>
<path d="M241.688 122.288L214.422 119.304" stroke="black" stroke-width="1.2" stroke-linecap="round" stroke-linejoin="round"/>
<path d="M271.295 31.3982L248.644 29.2742" stroke="black" stroke-width="1.2" stroke-linecap="round" stroke-linejoin="round"/>
<path d="M273.088 23.1147L254.004 21.3542" stroke="black" stroke-width="1.2" stroke-linecap="round" stroke-linejoin="round"/>
<path d="M245.846 98.2185L221.647 95.6697" stroke="black" stroke-width="1.2" stroke-linecap="round" stroke-linejoin="round"/>
<path d="M243.369 106.358L220.146 103.878" stroke="black" stroke-width="1.2" stroke-linecap="round" stroke-linejoin="round"/>
<path d="M269.193 241.586C253.933 239.613 238.705 237.639 223.508 235.664C225.005 225.897 227.068 216.226 229.686 206.698C229.919 205.863 230.44 205.137 231.157 204.649C231.874 204.16 232.74 203.941 233.603 204.03C247.588 205.773 261.595 207.514 275.626 209.254C276.088 209.316 276.532 209.477 276.926 209.727C277.32 209.976 277.656 210.308 277.91 210.699C278.164 211.09 278.331 211.531 278.399 211.992C278.467 212.454 278.435 212.925 278.304 213.372C276.008 221.816 274.142 230.371 272.713 239.005C272.584 239.811 272.142 240.535 271.483 241.018C270.824 241.501 270.001 241.705 269.193 241.586V241.586Z" fill="black"/>
<path d="M258.828 220.835C257.881 224.946 253.878 227.834 249.749 227.315C248.787 227.213 247.858 226.906 247.025 226.415C246.192 225.923 245.474 225.259 244.92 224.466C244.365 223.673 243.987 222.771 243.811 221.82C243.635 220.869 243.665 219.891 243.899 218.952C244.853 214.834 249.083 211.907 253.194 212.422C257.305 212.937 259.779 216.71 258.828 220.835Z" fill="#45E0A8"/>
<path d="M225.711 230.782L273.851 236.992" stroke="#45E0A8" stroke-width="1.2" stroke-linecap="round" stroke-linejoin="round"/>
<path d="M242.966 233.01C242.854 233.65 242.499 234.222 241.975 234.607C241.451 234.991 240.799 235.158 240.155 235.073C239.842 235.038 239.541 234.939 239.268 234.783C238.995 234.627 238.757 234.417 238.569 234.165C238.381 233.913 238.246 233.626 238.173 233.32C238.101 233.014 238.091 232.697 238.146 232.388C238.267 231.747 238.627 231.177 239.153 230.793C239.68 230.408 240.332 230.239 240.979 230.318C241.291 230.354 241.591 230.454 241.863 230.612C242.134 230.769 242.37 230.981 242.556 231.233C242.742 231.486 242.875 231.774 242.945 232.079C243.016 232.385 243.023 232.702 242.966 233.01Z" fill="#45E0A8" stroke="black" stroke-width="1.2" stroke-miterlimit="10"/>
<path d="M254.681 220.31C253.284 219.179 251.896 218.049 250.516 216.918C250.067 218.769 249.638 220.62 249.23 222.473L254.681 220.31Z" fill="black" stroke="black" stroke-width="1.2" stroke-linecap="round" stroke-linejoin="round"/>
<path d="M231.532 41.5183C217.356 40.2343 203.767 38.9983 190.766 37.8103C190.393 37.7765 190.035 37.6505 189.724 37.4436C189.413 37.2367 189.158 36.9554 188.982 36.6253C188.807 36.2951 188.716 35.9264 188.719 35.5525C188.722 35.1786 188.818 34.8113 188.998 34.4839C193.509 26.3885 198.633 18.6499 204.324 11.3357L246.275 13.5821C246.686 13.6058 247.083 13.7418 247.422 13.9752C247.761 14.2086 248.03 14.5306 248.2 14.9062C248.369 15.2817 248.432 15.6965 248.382 16.1053C248.332 16.5142 248.171 16.9016 247.916 17.2253C241.824 24.8789 236.345 33.0018 231.532 41.5183V41.5183Z" fill="black"/>
<path d="M229.362 41.3235L190.766 37.8099C190.393 37.7761 190.035 37.6501 189.724 37.4432C189.413 37.2363 189.158 36.9551 188.982 36.6249C188.807 36.2947 188.716 35.926 188.719 35.5521C188.722 35.1783 188.818 34.811 188.998 34.4835C193.18 26.9683 197.897 19.763 203.11 12.9229C203.482 12.4331 203.968 12.0421 204.526 11.7841C205.084 11.5261 205.697 11.4091 206.311 11.4433L246.271 13.5817C246.683 13.6048 247.08 13.7403 247.42 13.9735C247.76 14.2067 248.029 14.5286 248.199 14.9043C248.368 15.28 248.432 15.695 248.382 16.1041C248.332 16.5133 248.171 16.901 247.916 17.225C242.282 24.311 237.166 31.7945 232.609 39.6171C232.287 40.1821 231.81 40.6431 231.235 40.9455C230.659 41.2479 230.009 41.3791 229.362 41.3235Z" stroke="black" stroke-width="1.2" stroke-linecap="round" stroke-linejoin="round"/>
<path d="M225.337 24.3243C222.921 27.7947 218.058 30.3327 214.245 30.0339C210.433 29.7351 209.14 26.7687 211.477 23.3559C213.813 19.943 219.037 17.2538 222.896 17.4878C226.755 17.7218 227.792 20.8035 225.337 24.3243Z" fill="#45E0A8"/>
<path d="M187.447 33.2993C202.711 34.6097 218.779 35.9849 235.651 37.4249" stroke="#45E0A8" stroke-width="1.2" stroke-linecap="round" stroke-linejoin="round"/>
<path d="M205.994 34.8905C205.651 35.4361 205.172 35.8831 204.604 36.1873C204.036 36.4916 203.398 36.6426 202.754 36.6257C201.57 36.5213 201.08 35.5817 201.674 34.5197C202.024 33.9705 202.51 33.5209 203.084 33.2144C203.659 32.9079 204.303 32.7548 204.954 32.7701C206.156 32.8673 206.61 33.8213 205.994 34.8905Z" fill="#45E0A8" stroke="black" stroke-width="1.2" stroke-miterlimit="10"/>
<path d="M221.438 24.065C220.478 23.1746 219.529 22.289 218.591 21.4082C217.479 22.9706 216.408 24.5306 215.376 26.0882L221.438 24.065Z" fill="black"/>
<path d="M255.311 175.385L214.562 170.63C214.081 170.574 213.617 170.415 213.202 170.165C212.787 169.914 212.431 169.577 212.158 169.176C211.884 168.776 211.701 168.321 211.619 167.843C211.537 167.365 211.558 166.875 211.682 166.407L217.712 143.752C217.92 142.969 218.403 142.287 219.072 141.831C219.74 141.374 220.551 141.173 221.356 141.264L263.728 146.056C264.238 146.113 264.729 146.287 265.163 146.562C265.596 146.838 265.961 147.209 266.229 147.648C266.498 148.086 266.662 148.579 266.711 149.091C266.76 149.602 266.691 150.118 266.511 150.599C264.239 156.658 260.682 167.062 258.951 172.97C258.727 173.737 258.239 174.401 257.573 174.843C256.907 175.285 256.105 175.477 255.311 175.385Z" fill="black" stroke="black" stroke-width="1.2" stroke-linecap="round" stroke-linejoin="round"/>
<path d="M254.792 152.276C254.562 152.967 254.103 153.557 253.49 153.95C252.878 154.343 252.15 154.515 251.426 154.436C249.954 154.267 249.065 153.036 249.443 151.679C249.673 150.989 250.132 150.4 250.744 150.007C251.355 149.614 252.082 149.442 252.805 149.519C254.278 149.677 255.152 150.915 254.792 152.276Z" fill="#45E0A8"/>
<path d="M249.14 167.904L233.678 154.188C232.936 153.53 232.017 153.103 231.035 152.961C230.053 152.818 229.051 152.966 228.152 153.385L211.592 161.125" stroke="#45E0A8" stroke-width="1.2" stroke-linecap="round" stroke-linejoin="round"/>
<path d="M262.054 168.631L255.764 162.645C255.029 161.945 254.102 161.481 253.101 161.313C252.1 161.145 251.072 161.28 250.148 161.701L244.864 164.113" stroke="#45E0A8" stroke-width="1.2" stroke-linecap="round" stroke-linejoin="round"/>
<path d="M254.793 180.004C254.551 179.834 254.269 179.729 253.975 179.698C253.42 179.64 252.863 179.794 252.417 180.13C252.287 179.915 252.108 179.734 251.894 179.602C251.681 179.47 251.439 179.391 251.189 179.37C250.875 179.336 250.558 179.372 250.26 179.475C249.947 179.574 249.663 179.748 249.431 179.98C249.2 180.212 249.027 180.497 248.928 180.81C248.88 180.979 248.862 181.154 248.874 181.329C248.831 182.635 251.182 184.569 251.182 184.569C251.182 184.569 254.422 183.294 255.091 182.049C255.196 181.896 255.275 181.727 255.325 181.548C255.408 181.267 255.402 180.968 255.306 180.691C255.211 180.414 255.031 180.174 254.793 180.004V180.004Z" fill="black"/>
<path d="M233.333 179.921L240.292 180.738" stroke="black" stroke-width="1.2" stroke-linecap="round" stroke-linejoin="round"/>
<path d="M208.867 177.045L227.724 179.262" stroke="black" stroke-width="1.2" stroke-linecap="round" stroke-linejoin="round"/>
<path d="M91.6322 242.381C113.391 226.692 73.5817 168.473 62.3244 178.132L51.1392 187.009L68.8045 261.89L91.6322 242.381Z" fill="black" stroke="black" stroke-width="1.2" stroke-linecap="round" stroke-linejoin="round"/>
<path d="M92.1108 242.543C96.9277 238.986 101.833 235.422 106.828 231.851C112.069 228.105 117.271 224.446 122.434 220.875" stroke="black" stroke-width="1.2" stroke-linecap="round" stroke-linejoin="round"/>
<path d="M224.17 126.691C227.724 124.034 237.951 102.232 228.094 99.1544C218.911 96.2744 209.147 115.999 208.028 118.418" fill="#45E0A8"/>
<path d="M224.17 126.691C227.724 124.034 237.951 102.232 228.094 99.1544C218.911 96.2744 209.147 115.999 208.028 118.418" stroke="black" stroke-width="1.2" stroke-linecap="round" stroke-linejoin="round"/>
<path d="M237.728 68.9069L235.475 53.9812L216.708 58.9852L216.974 63.1217L175.002 59.0176C173.883 58.9077 172.76 59.178 171.815 59.7848C170.869 60.3917 170.155 61.2996 169.789 62.3621L127.449 185.044L124.004 183.906L119.162 186.815L126.228 195.181C126.377 195.386 126.54 195.578 126.718 195.757V195.779C127.501 196.56 128.522 197.056 129.62 197.19L191.745 204.919C192.91 205.066 194.09 204.798 195.078 204.162C196.065 203.526 196.797 202.563 197.145 201.442L237.552 71.1857C237.786 70.45 237.847 69.6699 237.728 68.9069V68.9069Z" fill="black" stroke="black" stroke-width="1.2" stroke-linecap="round" stroke-linejoin="round"/>
<path d="M187.512 196.744L122.531 188.662C121.758 188.565 121.017 188.298 120.36 187.878C119.704 187.459 119.15 186.898 118.738 186.237C118.326 185.576 118.067 184.832 117.98 184.058C117.892 183.284 117.979 182.5 118.233 181.764L164.522 47.6379C164.906 46.5265 165.652 45.5769 166.642 44.942C167.631 44.3071 168.806 44.0241 169.976 44.1386L230.928 50.1111C231.701 50.1869 232.446 50.4337 233.112 50.8335C233.777 51.2334 234.345 51.7763 234.774 52.4229C235.204 53.0694 235.484 53.8035 235.595 54.5718C235.705 55.34 235.643 56.1233 235.414 56.8647L193.149 193.104C192.787 194.276 192.023 195.283 190.992 195.949C189.961 196.614 188.729 196.896 187.512 196.744Z" fill="black" stroke="black" stroke-width="1.2" stroke-linecap="round" stroke-linejoin="round"/>
<path d="M189.765 186.005L126.07 178.204C125.683 178.157 125.312 178.025 124.983 177.817C124.654 177.608 124.376 177.328 124.169 176.999C123.962 176.669 123.831 176.297 123.786 175.91C123.742 175.523 123.784 175.131 123.91 174.762L165.001 55.2165C165.192 54.6603 165.566 54.185 166.061 53.8675C166.556 53.55 167.144 53.4088 167.729 53.4668L228.152 59.4933C228.538 59.5314 228.91 59.6548 229.242 59.8547C229.574 60.0545 229.857 60.3258 230.071 60.6488C230.286 60.9718 230.425 61.3384 230.48 61.722C230.534 62.1056 230.503 62.4965 230.388 62.8665L192.588 184.187C192.405 184.773 192.022 185.276 191.506 185.608C190.99 185.941 190.374 186.081 189.765 186.005V186.005Z" fill="white"/>
<path d="M190.259 50.9104L204.435 52.3108" stroke="#45E0A8" stroke-width="1.2" stroke-linecap="round" stroke-linejoin="round"/>
<path d="M209.468 54.0067C211.016 54.0067 211.016 51.6055 209.468 51.6055C207.92 51.6055 207.924 54.0067 209.468 54.0067Z" fill="#45E0A8"/>
<path d="M201.613 113.76L160.418 109.245C159.999 109.199 159.595 109.06 159.238 108.837C158.88 108.615 158.577 108.314 158.35 107.959C158.124 107.603 157.98 107.201 157.93 106.783C157.88 106.364 157.924 105.94 158.06 105.541L170.739 68.1296C170.943 67.5254 171.346 67.0086 171.883 66.6639C172.419 66.3192 173.057 66.167 173.691 66.2323L214.173 70.3508C214.589 70.3933 214.991 70.528 215.348 70.7451C215.706 70.9622 216.01 71.2563 216.24 71.6059C216.47 71.9555 216.618 72.3519 216.676 72.7662C216.733 73.1806 216.697 73.6024 216.571 74.0012L204.604 111.801C204.41 112.424 204.005 112.959 203.459 113.317C202.914 113.674 202.261 113.83 201.613 113.76V113.76Z" stroke="#45E0A8" stroke-width="1.2" stroke-linecap="round" stroke-linejoin="round"/>
<path d="M181.528 184.713L133.248 178.751L138.018 164.682C138.225 164.071 138.636 163.549 139.182 163.205C139.728 162.861 140.376 162.715 141.017 162.792L183.361 167.832C183.772 167.881 184.167 168.02 184.518 168.24C184.869 168.459 185.168 168.753 185.392 169.101C185.617 169.449 185.762 169.842 185.817 170.253C185.872 170.663 185.836 171.08 185.711 171.475L181.528 184.713Z" fill="#45E0A8" stroke="#45E0A8" stroke-width="1.2" stroke-linecap="round" stroke-linejoin="round"/>
<path d="M191.828 128.534L199.053 129.348" stroke="#45E0A8" stroke-width="1.2" stroke-linecap="round" stroke-linejoin="round"/>
<path d="M151.792 124.034L186.738 127.962" stroke="#45E0A8" stroke-width="1.2" stroke-linecap="round" stroke-linejoin="round"/>
<path d="M168.514 135.961L195.968 139.097" stroke="#45E0A8" stroke-width="1.2" stroke-linecap="round" stroke-linejoin="round"/>
<path d="M148.523 133.679L163.193 135.353" stroke="#45E0A8" stroke-width="1.2" stroke-linecap="round" stroke-linejoin="round"/>
<path d="M182.241 147.701L192.854 148.932" stroke="#45E0A8" stroke-width="1.2" stroke-linecap="round" stroke-linejoin="round"/>
<path d="M145.226 143.41L177.144 147.11" stroke="#45E0A8" stroke-width="1.2" stroke-linecap="round" stroke-linejoin="round"/>
<path d="M168.514 156.359L189.715 158.854" stroke="#45E0A8" stroke-width="1.2" stroke-linecap="round" stroke-linejoin="round"/>
<path d="M141.899 153.223L163.193 155.732" stroke="#45E0A8" stroke-width="1.2" stroke-linecap="round" stroke-linejoin="round"/>
<path d="M205.285 81.4459C204.669 83.3683 202.47 84.7543 200.378 84.5347C198.286 84.3151 197.098 82.5799 197.721 80.6611C198.344 78.7423 200.533 77.3671 202.621 77.5795C204.709 77.7919 205.901 79.5235 205.285 81.4459Z" fill="#45E0A8"/>
<path d="M180.549 81.6078L161.951 94.0531L157.653 106.74C157.567 106.995 157.539 107.266 157.572 107.533C157.604 107.8 157.696 108.057 157.841 108.283C157.985 108.51 158.179 108.702 158.408 108.844C158.636 108.986 158.894 109.075 159.161 109.105L199.683 113.547C200.06 113.591 200.442 113.526 200.783 113.359C201.124 113.192 201.409 112.93 201.606 112.606C201.802 112.281 201.901 111.907 201.891 111.527C201.881 111.148 201.762 110.779 201.548 110.466L182.547 81.9931C182.333 81.6773 182.002 81.4593 181.628 81.3871C181.253 81.3149 180.865 81.3943 180.549 81.6078V81.6078Z" fill="#45E0A8" stroke="#45E0A8" stroke-width="1.2" stroke-linecap="round" stroke-linejoin="round"/>
<path d="M200.151 92.7031L173.511 110.678L201.62 113.76C202.267 113.831 202.919 113.676 203.464 113.321C204.009 112.965 204.415 112.432 204.612 111.812L208.035 100.99L203.312 93.3871C203.152 93.1311 202.943 92.9099 202.697 92.7363C202.45 92.5627 202.171 92.4404 201.876 92.3767C201.581 92.3129 201.277 92.3089 200.981 92.365C200.684 92.421 200.402 92.536 200.151 92.7031Z" fill="#45E0A8" stroke="#45E0A8" stroke-width="1.2" stroke-linecap="round" stroke-linejoin="round"/>
<path d="M183.552 81.2695L196.951 101.322" stroke="white" stroke-width="1.2" stroke-linecap="round" stroke-linejoin="round"/>
<path d="M198.272 117.518C198.051 117.347 197.787 117.241 197.509 117.212C196.961 117.167 196.416 117.336 195.99 117.684C195.883 117.47 195.723 117.287 195.525 117.154C195.327 117.02 195.097 116.94 194.859 116.921C194.555 116.891 194.248 116.933 193.963 117.043C193.646 117.159 193.36 117.344 193.124 117.584C192.888 117.824 192.708 118.114 192.598 118.433C192.542 118.605 192.514 118.785 192.516 118.966C192.39 120.312 194.532 122.27 194.532 122.27C194.532 122.27 197.728 120.906 198.441 119.621C198.548 119.462 198.631 119.288 198.69 119.106C198.794 118.831 198.81 118.53 198.735 118.245C198.66 117.961 198.498 117.707 198.272 117.518V117.518Z" fill="#45E0A8"/>
<path d="M189.711 185.998L126.149 178.211C125.753 178.163 125.374 178.027 125.037 177.813C124.701 177.6 124.416 177.313 124.205 176.975C123.993 176.638 123.86 176.257 123.815 175.861C123.769 175.465 123.813 175.064 123.942 174.687L164.983 55.2668C165.178 54.6954 165.56 54.2066 166.068 53.8799C166.576 53.5532 167.179 53.4076 167.78 53.4668L228.08 59.4752C228.475 59.5148 228.856 59.6419 229.196 59.8472C229.536 60.0525 229.826 60.3308 230.045 60.6621C230.264 60.9933 230.406 61.3691 230.462 61.7622C230.517 62.1553 230.485 62.5559 230.366 62.9348L192.591 184.137C192.405 184.735 192.015 185.249 191.489 185.59C190.962 185.93 190.333 186.074 189.711 185.998V185.998Z" stroke="black" stroke-width="1.2" stroke-linecap="round" stroke-linejoin="round"/>
<path d="M218.155 47.6633L230.726 48.8837C231.546 48.963 232.339 49.2239 233.046 49.6475C233.753 50.071 234.356 50.6467 234.813 51.3327C235.27 52.0186 235.568 52.7976 235.686 53.6132C235.804 54.4288 235.739 55.2604 235.496 56.0478L193.149 193.104C192.786 194.276 192.023 195.284 190.992 195.949C189.961 196.615 188.729 196.896 187.511 196.744L121.501 188.417C120.719 188.318 119.968 188.047 119.303 187.624C118.637 187.2 118.074 186.635 117.652 185.968C117.231 185.301 116.963 184.549 116.866 183.767C116.77 182.984 116.848 182.189 117.095 181.44L118.222 178.031" stroke="#45E0A8" stroke-width="1.2" stroke-linecap="round" stroke-linejoin="round"/>
<path d="M185.783 200.488L126.441 193.144C117.564 218.843 112.789 245.779 112.289 272.964L177.143 282.936L185.783 200.488Z" fill="#45E0A8" stroke="black" stroke-width="1.2" stroke-linecap="round" stroke-linejoin="round"/>
<path d="M179.037 248.563L127.874 241.806C127.427 241.747 126.998 241.6 126.609 241.373C126.221 241.146 125.882 240.844 125.612 240.484C125.342 240.124 125.146 239.714 125.037 239.278C124.928 238.841 124.907 238.387 124.975 237.943C125.764 232.852 126.75 227.503 127.974 221.951C128.92 217.665 129.932 213.56 131.009 209.636C131.223 208.85 131.714 208.169 132.39 207.716C133.067 207.264 133.884 207.071 134.692 207.173L183.674 213.344L179.037 248.563Z" fill="black"/>
<path d="M163.37 224.885C162.994 227.054 161.797 228.995 160.027 230.303C158.256 231.612 156.049 232.187 153.866 231.909C152.811 231.789 151.792 231.453 150.873 230.922C149.953 230.39 149.154 229.675 148.524 228.821C147.893 227.966 147.446 226.991 147.21 225.956C146.974 224.92 146.954 223.848 147.152 222.804C147.571 220.682 148.778 218.797 150.531 217.528C152.283 216.259 154.451 215.7 156.598 215.964C157.639 216.081 158.646 216.407 159.557 216.924C160.467 217.441 161.264 218.138 161.897 218.973C162.53 219.807 162.987 220.761 163.241 221.778C163.494 222.794 163.538 223.851 163.37 224.885V224.885Z" fill="#45E0A8"/>
<path d="M123.773 235.329L177.63 242.385" stroke="#45E0A8" stroke-width="1.2" stroke-linecap="round" stroke-linejoin="round"/>
<path d="M146.431 238.295C146.298 239.019 145.894 239.664 145.303 240.102C144.712 240.54 143.976 240.737 143.245 240.653C142.897 240.606 142.563 240.487 142.262 240.305C141.962 240.123 141.702 239.88 141.5 239.593C141.297 239.306 141.156 238.98 141.084 238.636C141.013 238.292 141.014 237.937 141.085 237.593C141.224 236.875 141.628 236.236 142.217 235.803C142.807 235.37 143.538 235.175 144.264 235.257C144.611 235.303 144.945 235.42 145.244 235.601C145.544 235.781 145.804 236.021 146.007 236.306C146.21 236.591 146.352 236.915 146.425 237.257C146.499 237.599 146.501 237.952 146.431 238.295V238.295Z" fill="#45E0A8" stroke="black" stroke-width="1.2" stroke-miterlimit="10"/>
<path d="M158.866 224.309L154.143 220.677L153.11 226.62L158.866 224.309Z" fill="black" stroke="black" stroke-width="1.2" stroke-linecap="round" stroke-linejoin="round"/>
<path d="M159.093 268.644L122.286 263.64" stroke="black" stroke-width="1.2" stroke-linecap="round" stroke-linejoin="round"/>
<path d="M152.548 259.334L122.87 255.345" stroke="black" stroke-width="1.2" stroke-linecap="round" stroke-linejoin="round"/>
<path d="M157.232 114.912L157.664 113.616C157.751 113.334 157.927 113.088 158.165 112.914C158.403 112.74 158.69 112.646 158.985 112.647L162.394 113.007" stroke="#45E0A8" stroke-width="1.2" stroke-linecap="round" stroke-linejoin="round"/>
<path d="M157.084 115.319L158.096 114.57L156.631 114.415L157.084 115.319Z" fill="#45E0A8" stroke="#45E0A8" stroke-width="1.2" stroke-linecap="round" stroke-linejoin="round"/>
<path d="M161.552 115.506L161.12 116.805C161.033 117.089 160.857 117.337 160.619 117.513C160.38 117.688 160.091 117.782 159.795 117.781L156.378 117.421" stroke="#45E0A8" stroke-width="1.2" stroke-linecap="round" stroke-linejoin="round"/>
<path d="M161.685 115.106L160.677 115.859L162.146 116.013L161.685 115.106Z" fill="#45E0A8" stroke="#45E0A8" stroke-width="1.2" stroke-linecap="round" stroke-linejoin="round"/>
<path d="M63.1343 176.908C78.0708 164.588 93.7345 150.847 109.499 132.451C119.955 120.231 129.62 107.357 138.436 93.9055C139.201 92.7062 140.328 91.781 141.653 91.2634C142.978 90.7458 144.433 90.6625 145.809 91.0254C146.382 91.1856 146.929 91.4281 147.432 91.7454C156.433 97.4227 151.792 129.362 124.875 162.536" fill="#45E0A8"/>
<path d="M147.432 91.7454C146.929 91.428 146.382 91.1855 145.809 91.0254C151.954 96.141 144.106 126.54 136.711 145.85C152.969 119.246 154.888 96.4434 147.432 91.7454Z" fill="white"/>
<path d="M46.1567 191.265C69.4515 174.141 90.7099 154.408 109.517 132.451C119.967 120.231 129.626 107.356 138.436 93.9055C139.201 92.7062 140.328 91.781 141.653 91.2634C142.978 90.7458 144.433 90.6625 145.809 91.0254C146.382 91.1856 146.929 91.4281 147.433 91.7454C156.433 97.4227 151.792 129.362 124.875 162.536" stroke="black" stroke-width="1.2" stroke-linecap="round" stroke-linejoin="round"/>
<path d="M211.97 143.406L212.794 138.546C210.825 128.502 212.888 120.661 217.096 119.03C217.168 119.001 217.244 118.976 217.327 118.951C218.361 118.628 219.477 118.689 220.469 119.124C221.461 119.559 222.263 120.337 222.727 121.316C224.462 124.827 225.503 128.639 225.79 132.545C226.209 138.761 224.742 144.959 221.582 150.329L211.97 143.406Z" fill="#45E0A8"/>
<path d="M220.772 119.289C220.252 118.998 219.678 118.818 219.085 118.76C218.492 118.702 217.893 118.767 217.327 118.951C217.244 118.976 217.168 119.001 217.096 119.03C212.888 120.661 210.825 128.502 212.794 138.546L212.395 140.907L214.893 145.336C214.195 140.385 214.8 121.719 220.772 119.289Z" fill="white"/>
<path d="M211.97 143.406L212.794 138.546C210.825 128.502 212.888 120.661 217.096 119.03C217.168 119.001 217.244 118.976 217.327 118.951C218.361 118.628 219.477 118.689 220.469 119.124C221.461 119.559 222.263 120.337 222.727 121.316C224.462 124.827 225.503 128.639 225.79 132.545C226.209 138.761 224.742 144.959 221.582 150.329L211.97 143.406Z" stroke="black" stroke-width="1.2" stroke-linecap="round" stroke-linejoin="round"/>
<path d="M204.435 162.522L203.906 156.906C197.836 148.111 196.951 140.191 201.159 136.202C203.571 133.913 215.282 138.002 219.62 144.349C224.17 151.002 220.25 159.883 213.061 165.089L204.435 162.522Z" fill="#45E0A8"/>
<path d="M209.259 163.959C206.678 157.763 200.666 140.54 205.058 135.702C203.258 135.421 201.843 135.558 201.159 136.206C196.951 140.195 197.836 148.115 203.906 156.91L204.392 162.231L205.555 162.857L209.259 163.959Z" fill="white"/>
<path d="M204.435 162.522L203.906 156.906C197.836 148.111 196.951 140.191 201.159 136.202C203.571 133.913 215.282 138.002 219.62 144.349C224.17 151.002 220.25 159.883 213.061 165.089L204.435 162.522Z" stroke="black" stroke-width="1.2" stroke-linecap="round" stroke-linejoin="round"/>
<path d="M201.512 188.425C205.155 187.658 215.818 180.076 214.285 168.83C214.021 166.913 213.268 165.097 212.1 163.556C206.898 156.698 196.511 152.626 192.523 156.662C190.647 158.559 188.771 164.582 194.427 170.666C196.76 173.196 204.255 180.123 201.512 188.425Z" fill="#45E0A8"/>
<path d="M196.062 155.106C194.732 155.188 193.475 155.738 192.512 156.658C190.636 158.551 188.761 164.578 194.416 170.662C196.01 172.257 197.485 173.967 198.83 175.777C196.807 169.409 193.743 158.396 196.062 155.106Z" fill="white"/>
<path d="M201.512 188.425C205.155 187.658 215.818 180.076 214.285 168.83C214.021 166.913 213.268 165.097 212.1 163.556C206.898 156.698 196.511 152.626 192.523 156.662C190.647 158.559 188.771 164.582 194.427 170.666C196.76 173.196 204.255 180.123 201.512 188.425Z" stroke="black" stroke-width="1.2" stroke-linecap="round" stroke-linejoin="round"/>
<path d="M241.505 220.392C236.465 216.494 229.668 212.962 225.232 215.126C220.081 211.14 211.966 206.846 203.351 208.725C194.762 184.356 187.969 166.122 179.03 168.916C170.75 171.501 170.584 191.2 172.47 219.644C171.75 212.804 169.929 207.864 165.717 207.188C164.515 207.018 163.291 207.206 162.195 207.727C161.099 208.248 160.181 209.079 159.554 210.118C154.787 217.779 147.051 233.878 146.068 247.097C144.779 264.504 146.504 287.418 149.736 294.355L161.717 304.55L237.005 295.986L266.885 268.626C268.004 262.124 265.398 220.392 241.505 220.392Z" fill="#45E0A8"/>
<path d="M225.232 215.126C232.771 211.446 247.139 224.223 248.071 227.283C244.772 224.056 240.901 221.473 236.655 219.665C233.743 218.428 230.683 217.572 227.551 217.12L225.232 215.126Z" fill="white"/>
<path d="M229.254 218.712C225.341 214.615 214.785 206.227 203.352 208.747L204.641 212.404C207.317 212.207 210.008 212.284 212.669 212.635C218.575 213.425 224.236 215.499 229.254 218.712V218.712Z" fill="white"/>
<path d="M165.717 207.187C164.516 207.018 163.291 207.206 162.195 207.727C161.1 208.248 160.181 209.079 159.554 210.118C154.787 217.779 147.051 233.878 146.068 247.097C146.021 247.734 145.985 248.379 145.957 249.023C147.53 239.49 162.319 201.568 172.003 217.807L172.233 217.71C171.384 211.882 169.522 207.799 165.717 207.187Z" fill="white"/>
<path d="M190.766 177.624C187.058 171.025 183.289 167.584 179.03 168.916C170.314 171.637 170.588 193.324 172.788 224.223C174.015 212.238 174.372 164.765 190.766 177.624Z" fill="white"/>
<path d="M149.736 294.355C146.496 287.4 144.779 264.504 146.068 247.098C147.051 233.875 154.787 217.779 159.554 210.118C160.182 209.081 161.101 208.25 162.196 207.729C163.292 207.208 164.516 207.02 165.717 207.188C176.798 208.937 172.345 247.677 172.233 263.64" stroke="black" stroke-width="1.2" stroke-linecap="round" stroke-linejoin="round"/>
<path d="M205.447 214.679C195.835 187.405 188.685 165.899 179.03 168.916C170.314 171.637 170.588 193.324 172.788 224.223" stroke="black" stroke-width="1.2" stroke-linecap="round" stroke-linejoin="round"/>
<path d="M189.949 233.882C199.543 227.203 247.337 234.861 257.129 241.982" stroke="black" stroke-width="1.2" stroke-linecap="round" stroke-linejoin="round"/>
<path d="M203.352 208.746C214.785 206.248 225.341 214.632 229.254 218.729" stroke="black" stroke-width="1.2" stroke-linecap="round" stroke-linejoin="round"/>
<path d="M225.232 215.126C232.771 211.446 247.139 224.223 248.071 227.283" stroke="black" stroke-width="1.2" stroke-linecap="round" stroke-linejoin="round"/>
<path d="M241.501 220.393C265.398 220.393 268.004 262.124 266.888 268.633" stroke="black" stroke-width="1.2" stroke-linecap="round" stroke-linejoin="round"/>
<path d="M145.874 49.5137L149.888 57.7937" stroke="white" stroke-width="1.2" stroke-linecap="round" stroke-linejoin="round"/>
<path d="M139.591 72.5753L110.14 61.2712" stroke="white" stroke-width="1.2" stroke-linecap="round" stroke-linejoin="round"/>
<path d="M120.317 90.0067L133.144 87.1086" stroke="white" stroke-width="1.2" stroke-linecap="round" stroke-linejoin="round"/>
<path d="M269.589 181.105C268.84 186.146 269.283 189.814 271.666 191.232C278.69 195.405 284.878 184.187 290.271 183.564L269.589 181.105Z" fill="black" stroke="black" stroke-width="1.2" stroke-linecap="round" stroke-linejoin="round"/>
<path d="M258.655 128.401C269.48 133.103 278.916 110.315 285.904 110.437L255.642 107.197C252.895 117.965 252.971 125.946 258.655 128.401Z" fill="black" stroke="black" stroke-width="1.2" stroke-linecap="round" stroke-linejoin="round"/>
<path d="M232.091 62.6755C248.139 24.1553 265.42 -0.0729041 281.022 8.46275C303.281 20.6452 235.662 118.418 258.655 128.401C270.438 133.517 280.572 106.081 287.697 111.038C297.859 118.127 259.487 183.993 271.666 191.232C279.463 195.866 286.231 181.512 292.024 183.773C304.019 188.424 272.116 267.074 284.611 268.644" stroke="black" stroke-width="1.2" stroke-linecap="round" stroke-linejoin="round"/>
<path d="M231.216 69.9043L235.496 56.0478C235.74 55.2604 235.804 54.4288 235.686 53.6132C235.568 52.7976 235.27 52.0186 234.813 51.3327C234.356 50.6467 233.753 50.071 233.046 49.6475C232.339 49.2239 231.547 48.963 230.726 48.8837L218.155 47.6633" stroke="#45E0A8" stroke-width="1.2" stroke-linecap="round" stroke-linejoin="round"/>
<path d="M233 88.0966L237.82 72.9261C238.854 69.9165 238.234 66.6801 238.234 66.6801L235.714 55" stroke="#45E0A8" stroke-width="1.2" stroke-linecap="round" stroke-linejoin="round"/>
<path d="M231.684 88.7687L231.396 88.3763L231.878 86.7922C231.878 86.7922 229.884 86.9542 229.718 86.983C229.546 87.0121 229.384 87.0883 229.252 87.2033C229.12 87.3183 229.022 87.4676 228.97 87.6346L221.881 109.595C221.786 109.887 221.762 110.197 221.811 110.5C221.86 110.803 221.98 111.09 222.162 111.337L223.202 112.748C223.285 112.863 223.393 112.958 223.518 113.024C223.643 113.091 223.781 113.129 223.922 113.134C224.034 113.134 226.223 113.562 226.223 113.562L228.941 99.8819L231.968 90.5219C232.065 90.2282 232.089 89.9157 232.04 89.6107C231.99 89.3056 231.868 89.0169 231.684 88.7687V88.7687Z" fill="black" stroke="#45E0A8" stroke-width="1.2" stroke-linecap="round" stroke-linejoin="round"/>
<path d="M224.617 111.142L225.604 112.525C225.701 112.664 225.836 112.773 225.993 112.838C226.15 112.904 226.322 112.923 226.49 112.895C226.657 112.867 226.814 112.792 226.94 112.679C227.067 112.565 227.159 112.418 227.206 112.255L233.941 90.7411C234.03 90.4545 234.052 90.1512 234.005 89.8548C233.958 89.5583 233.844 89.2765 233.671 89.0311L232.685 87.6487C232.587 87.5099 232.451 87.4015 232.294 87.3362C232.137 87.2709 231.965 87.2512 231.797 87.2794C231.63 87.3076 231.473 87.3825 231.346 87.4956C231.219 87.6087 231.127 87.7554 231.079 87.9187L224.347 109.432C224.258 109.719 224.235 110.022 224.282 110.319C224.329 110.616 224.444 110.897 224.617 111.142V111.142Z" fill="black"/>
<path d="M234.384 88.9774L232.883 87.1594C232.779 87.0154 232.638 86.9032 232.474 86.8354C232.31 86.7676 232.131 86.747 231.956 86.7758C231.781 86.8047 231.618 86.8818 231.485 86.9986C231.351 87.1153 231.253 87.267 231.202 87.4366L223.969 109.778C223.875 110.074 223.851 110.387 223.9 110.694C223.949 111 224.069 111.291 224.25 111.542L225.74 113.148" stroke="#45E0A8" stroke-width="1.2" stroke-linecap="round" stroke-linejoin="round"/>
</g>
<path d="M152.732 32.5754L138.209 47.1051C119.353 45.994 100.444 48.0802 82.2829 53.2756C81.6771 53.4501 81.1256 53.7755 80.6798 54.2213C80.234 54.667 79.9086 55.2186 79.7341 55.8244C74.5374 73.9837 72.4535 92.892 73.5709 111.747L59.0484 126.266C54.9115 130.403 51.63 135.314 49.3912 140.718C47.1523 146.123 46 151.916 46 157.766C46 163.616 47.1523 169.409 49.3912 174.814C51.63 180.219 54.9115 185.13 59.0484 189.266L73.5709 203.789C72.4531 222.643 74.537 241.55 79.7341 259.708C79.9085 260.315 80.2337 260.867 80.6794 261.314C81.1251 261.761 81.6768 262.088 82.2829 262.264C100.444 267.457 119.353 269.542 138.209 268.431L152.732 282.95C156.868 287.087 161.779 290.369 167.184 292.608C172.589 294.847 178.382 296 184.232 296C190.082 296 195.875 294.847 201.28 292.608C206.685 290.369 211.596 287.087 215.732 282.95L230.248 268.431C249.104 269.547 268.013 267.463 286.174 262.268C286.78 262.093 287.332 261.768 287.779 261.322C288.225 260.877 288.551 260.325 288.726 259.719C293.919 241.556 296.004 222.647 294.893 203.789L309.412 189.266C313.55 185.13 316.832 180.22 319.071 174.815C321.311 169.41 322.463 163.617 322.463 157.766C322.463 151.916 321.311 146.123 319.071 140.718C316.832 135.313 313.55 130.402 309.412 126.266L294.893 111.747C296.004 92.8907 293.919 73.9822 288.726 55.8208C288.552 55.2141 288.226 54.6617 287.779 54.2152C287.333 53.7688 286.781 53.443 286.174 53.2684" stroke="white" stroke-width="2" stroke-miterlimit="10" stroke-linejoin="round"/>
</svg>
