<svg width="368" height="298" viewBox="0 0 368 298" fill="none" xmlns="http://www.w3.org/2000/svg">
<path d="M184.135 15.3354V6.4687C184.135 4.5094 182.441 2.9486 180.482 3.14785C107.157 11.4832 50.2047 73.716 50.2047 149.265H41.338C39.3787 149.265 37.8179 150.959 38.0172 152.918C46.3525 226.243 108.585 283.195 184.135 283.195V292.062C184.135 294.021 185.828 295.582 187.788 295.383C261.112 287.047 318.065 224.815 318.065 149.265H326.931C328.891 149.265 330.451 147.572 330.252 145.612C321.917 72.288 259.684 15.3354 184.135 15.3354Z" fill="#B880FF" stroke="white" stroke-width="2" stroke-miterlimit="10" stroke-linecap="round" stroke-linejoin="round"/>
<mask id="mask0" mask-type="alpha" maskUnits="userSpaceOnUse" x="38" y="2" width="293" height="293">
<path d="M184.362 14.6047V5.73802C184.362 3.77872 182.669 2.21792 180.709 2.41717C107.385 10.7525 50.4322 72.9853 50.4322 148.535H41.5656C39.6063 148.535 38.0455 150.228 38.2447 152.188C46.5801 225.512 108.813 282.465 184.362 282.465V291.331C184.362 293.291 186.056 294.851 188.015 294.652C261.34 286.317 318.292 224.084 318.292 148.535H327.159C329.118 148.535 330.679 146.841 330.48 144.882C322.144 71.5573 259.912 14.6047 184.362 14.6047Z" fill="#B680FF"/>
</mask>
<g mask="url(#mask0)">
<path d="M283.893 248.924L245.603 295.383C220.431 278.845 197.916 257.259 184.566 230.261C184.4 229.995 184.301 229.663 184.168 229.397C187.156 230.792 190.477 231.124 193.732 231.29C214.387 232.253 235.276 225.18 251.083 211.863C252.212 215.118 253.673 218.273 255.367 221.261C262.075 232.884 272.469 241.984 283.893 248.924Z" fill="black" stroke="black" stroke-width="1.2" stroke-miterlimit="10" stroke-linecap="round" stroke-linejoin="round"/>
</g>
<path d="M184.135 283.195V292.062C184.135 294.021 185.828 295.582 187.788 295.383C261.112 287.047 318.065 224.815 318.065 149.265H326.931C328.891 149.265 330.451 147.572 330.252 145.612" stroke="white" stroke-width="2" stroke-miterlimit="10" stroke-linecap="round" stroke-linejoin="round"/>
<path d="M182.175 225.08C177.194 213.623 173.973 201.303 172.943 188.883C172.678 185.928 172.545 182.972 172.545 180.016C172.545 172.544 173.375 165.106 175.102 157.866C176.165 153.35 177.593 148.9 179.386 144.583C179.452 144.417 179.486 144.317 179.552 144.151C178.224 132.395 177.892 120.474 178.257 108.651C178.689 94.7369 180.117 82.483 182.043 69.7973C139.934 65.6795 95.0695 65.5798 53.9242 74.5461C52.0645 91.1504 51.5996 107.721 52.5626 124.193C54.057 150.029 59.1047 175.699 67.6393 201.303C72.0892 214.62 77.7015 228.036 87.8633 237.7C98.0251 247.363 113.766 252.345 126.518 246.467C127.913 245.836 129.241 245.039 130.47 244.175H130.503C130.536 244.175 130.536 244.142 130.536 244.142C146.609 235.807 165.97 229.464 182.64 226.176C182.508 225.811 182.342 225.446 182.175 225.08Z" fill="white"/>
<path d="M182.175 225.08C177.194 213.623 173.973 201.303 172.943 188.883C172.678 185.928 172.545 182.972 172.545 180.016C172.545 172.544 173.375 165.106 175.102 157.866C176.165 153.35 177.593 148.9 179.386 144.583C179.452 144.417 179.486 144.317 179.552 144.151C178.224 132.395 177.892 120.474 178.257 108.651C178.689 94.7369 180.117 82.483 182.043 69.7973C139.934 65.6795 95.0695 65.5798 53.9242 74.5461C52.0645 91.1504 51.5996 107.721 52.5626 124.193C54.057 150.029 59.1047 175.699 67.6393 201.303C72.0892 214.62 77.7015 228.036 87.8633 237.7C98.0251 247.363 113.766 252.345 126.518 246.467C127.913 245.836 129.241 245.039 130.47 244.175H130.503C130.536 244.175 130.536 244.142 130.536 244.142C146.609 235.807 165.97 229.464 182.64 226.176C182.508 225.811 182.342 225.446 182.175 225.08Z" stroke="black" stroke-width="1.2" stroke-miterlimit="10" stroke-linecap="round" stroke-linejoin="round"/>
<path d="M182.674 226.176C166.003 229.464 146.642 235.774 130.569 244.142C137.145 239.493 141.628 231.921 142.259 223.885C143.023 214.321 138.274 204.491 130.304 199.111C141.429 197.916 154.214 195.89 165.704 193.233" fill="white"/>
<path d="M182.674 226.176C166.003 229.464 146.642 235.774 130.569 244.142C137.145 239.493 141.628 231.921 142.259 223.885C143.023 214.321 138.274 204.491 130.304 199.111C141.429 197.916 154.214 195.89 165.704 193.233" stroke="black" stroke-width="1.2" stroke-miterlimit="10" stroke-linecap="round" stroke-linejoin="round"/>
<path d="M173.176 191.407C174.438 202.997 177.56 214.42 182.176 225.08C182.342 225.446 182.508 225.811 182.674 226.176" stroke="black" stroke-width="1.2" stroke-miterlimit="10" stroke-linecap="round" stroke-linejoin="round"/>
<path d="M117.85 130.635C110.478 131.632 92.8444 134.155 83.0479 134.488C81.3211 134.554 79.7603 133.292 79.4614 131.565C77.336 120.706 76.6719 100.482 76.6719 92.678C76.6719 90.8848 77.8342 89.3904 79.5942 89.1911C86.0699 88.5269 100.184 87.4643 115.194 87.3979C117.12 87.3647 118.78 88.9254 118.78 90.8183C118.813 104.467 119.478 120.009 120.64 127.049C120.806 128.842 119.61 130.403 117.85 130.635Z" stroke="#B880FF" stroke-width="1.2" stroke-miterlimit="10" stroke-linecap="round" stroke-linejoin="round"/>
<path d="M129.507 172.445C130.47 175.4 131.433 177.991 132.296 180.05C132.794 181.61 131.865 183.072 130.171 183.404C123.131 184.798 106.228 188.252 96.6968 189.182C95.0032 189.348 93.2763 188.319 92.6454 186.824C88.6935 177.327 84.5425 159.427 83.1809 152.52C82.882 150.926 83.7455 149.498 85.4391 149.232C91.7155 148.203 105.265 145.812 119.976 144.716C121.836 144.583 123.463 145.845 123.695 147.572C124.359 152.586 125.455 157.9 126.751 162.881" stroke="#B880FF" stroke-width="1.2" stroke-miterlimit="10" stroke-linecap="round" stroke-linejoin="round"/>
<path d="M127.68 166.401C128.278 168.526 128.876 170.552 129.507 172.445" stroke="#B880FF" stroke-width="1.2" stroke-miterlimit="10" stroke-linecap="round" stroke-linejoin="round"/>
<path d="M126.717 162.848C127.016 164.043 127.348 165.239 127.647 166.368" stroke="#B880FF" stroke-width="1.2" stroke-miterlimit="10" stroke-linecap="round" stroke-linejoin="round"/>
<path d="M185.662 47.9129C185.629 48.1122 185.596 48.3114 185.563 48.4775C185.43 49.2745 185.297 50.0715 185.164 50.8353C184.035 57.6762 182.972 63.3881 182.043 69.7973C142.458 65.9119 100.449 65.6131 61.3628 73.0518C58.8721 73.5167 56.3815 74.0148 53.9241 74.5462C55.186 63.6205 57.0457 52.6285 59.5363 41.6033C60.2337 38.6145 62.7243 36.3564 65.7795 35.9911C103.139 31.4415 142.524 33.0023 179.452 40.3082C184.234 41.3044 186.293 43.9943 185.662 47.9129Z" fill="#B880FF"/>
<path d="M185.231 48.6435C185.197 48.8427 185.164 49.042 185.131 49.208C184.998 50.005 184.865 50.802 184.732 51.5658C183.603 58.4068 182.906 63.0703 181.943 69.4132C181.113 69.3135 180.235 70.0015 179.438 69.9351C180.301 64.4225 180.98 59.5691 181.943 53.5251C182.076 52.7613 182.209 51.9643 182.341 51.1673C182.375 51.0013 182.408 50.802 182.441 50.6028C183.072 46.6842 181.013 43.9943 176.264 43.0313C139.469 35.7586 100.25 34.1978 63.0232 38.7474C62.3923 38.8138 61.7945 38.9466 61.23 39.2123C62.3591 37.9171 63.9863 36.9873 65.8128 36.7881C103.039 32.2717 142.259 33.8325 179.087 41.0719C183.803 42.035 185.862 44.7249 185.231 48.6435Z" fill="white" stroke="white" stroke-width="1.2" stroke-miterlimit="10" stroke-linecap="round" stroke-linejoin="round"/>
<path d="M130.47 103.205C139.801 102.607 149.465 102.275 159.062 102.873" stroke="#B880FF" stroke-width="1.2" stroke-miterlimit="10" stroke-linecap="round" stroke-linejoin="round"/>
<path d="M152.188 112.67C154.479 112.603 156.771 112.57 159.029 112.57" stroke="#B880FF" stroke-width="1.2" stroke-miterlimit="10" stroke-linecap="round" stroke-linejoin="round"/>
<path d="M130.47 114.396C135.318 113.832 140.233 113.334 145.214 113.002" stroke="#B880FF" stroke-width="1.2" stroke-miterlimit="10" stroke-linecap="round" stroke-linejoin="round"/>
<path d="M79.5942 53.1599C79.561 56.6135 76.9376 59.6023 73.6499 59.9012C70.2959 60.2001 67.5063 57.5434 67.5063 53.9569C67.5063 50.3703 70.2959 47.3151 73.6831 47.1491C76.9708 46.9831 79.5942 49.673 79.5942 53.1599Z" stroke="black" stroke-width="1.2" stroke-miterlimit="10" stroke-linecap="round" stroke-linejoin="round"/>
<path d="M97.527 51.8979C97.4606 54.9863 95.1028 57.7094 92.2136 57.9419C89.2581 58.1743 86.8338 55.7833 86.9003 52.5621C86.9335 49.3409 89.4241 46.6178 92.4129 46.4849C95.302 46.3521 97.5602 48.7763 97.527 51.8979Z" fill="white" stroke="white" stroke-width="1.2" stroke-miterlimit="10" stroke-linecap="round" stroke-linejoin="round"/>
<path d="M114.497 51.8647C114.397 54.9531 111.973 57.6098 109.017 57.8423C106.028 58.0747 103.637 55.6837 103.704 52.4957C103.77 49.3077 106.327 46.6178 109.349 46.4849C112.305 46.3521 114.596 48.7763 114.497 51.8647Z" stroke="white" stroke-width="1.2" stroke-miterlimit="10" stroke-linecap="round" stroke-linejoin="round"/>
<path d="M88.7932 108.884C91.6824 111.806 94.5715 114.728 97.4938 117.651C100.416 112.67 104.102 107.987 107.058 103.006" stroke="black" stroke-width="1.2" stroke-miterlimit="10" stroke-linecap="round" stroke-linejoin="round"/>
<path d="M276.421 126.484L274.495 127.447C283.76 106.659 277.085 89.3572 271.606 89.5565C271.938 87.3979 272.669 85.4054 274.661 84.7412C280.539 82.4498 289.074 102.807 276.421 126.484Z" fill="white"/>
<path d="M268.285 105.729C268.285 105.762 268.285 105.762 268.285 105.762C267.754 107.323 267.222 108.884 266.625 110.445C266.791 102.74 259.551 86.1692 253.806 88.5602C253.673 86.468 253.707 83.8114 255.4 83.0144C261.411 80.2248 269.115 98.4563 268.285 105.729Z" fill="white"/>
<path d="M246.932 141.262C257.492 130.37 265.263 116.821 269.381 102.275C270.277 99.1537 270.842 95.9657 271.207 92.7445C271.539 89.7557 271.672 85.7375 274.628 84.7412C280.539 82.4498 289.074 102.84 276.421 126.484" stroke="black" stroke-width="1.2" stroke-miterlimit="10" stroke-linecap="round" stroke-linejoin="round"/>
<path d="M252.079 144.317C266.027 137.842 277.915 127.082 285.786 113.898C286.981 111.939 290.601 104.666 293.988 105.563C297.01 106.393 296.911 109.88 296.911 111.939C296.745 120.274 293.723 128.51 288.476 134.986C278.978 146.675 266.027 155.11 257.592 167.596C254.537 172.113 251.913 177.393 250.253 182.607C247.197 192.071 247.862 202.399 251.149 211.863L252.079 144.317Z" fill="#B880FF"/>
<path d="M296.911 111.972C296.745 120.308 293.723 128.543 288.476 135.019C278.978 146.708 266.027 155.143 257.592 167.63C255.267 171.083 253.208 174.936 251.614 178.887C251.614 178.887 245.039 190.145 250.187 208.841C238.231 187.92 252.843 167.331 253.408 166.501C261.843 154.014 274.827 145.579 284.292 133.89C289.539 127.414 292.561 119.178 292.727 110.843C292.76 109.482 292.793 107.456 291.896 106.028C292.594 105.629 293.291 105.43 294.022 105.629C297.011 106.393 296.911 109.913 296.911 111.972Z" fill="white" stroke="white" stroke-width="1.2" stroke-miterlimit="10" stroke-linecap="round" stroke-linejoin="round"/>
<path d="M252.079 144.317C266.027 137.842 277.915 127.082 285.786 113.898C286.981 111.939 290.601 104.666 293.988 105.563C297.01 106.393 296.911 109.88 296.911 111.939C296.745 120.274 293.723 128.51 288.476 134.986C278.978 146.675 266.027 155.11 257.592 167.596C254.537 172.113 251.913 177.393 250.253 182.607C247.197 192.071 247.862 202.399 251.149 211.863" stroke="black" stroke-width="1.2" stroke-miterlimit="10" stroke-linecap="round" stroke-linejoin="round"/>
<path d="M238.829 140.432C247.33 141.793 255.367 145.911 261.411 152.055" stroke="black" stroke-width="1.2" stroke-miterlimit="10" stroke-linecap="round" stroke-linejoin="round"/>
<path d="M221.992 173.873C220.764 177.26 219.9 180.78 219.402 184.367" stroke="black" stroke-width="1.2" stroke-miterlimit="10" stroke-linecap="round" stroke-linejoin="round"/>
<path d="M268.318 105.795C269.148 98.5559 261.444 80.2248 255.433 83.0475C253.507 83.9442 253.74 87.3646 253.906 89.49C254.636 98.1574 255.168 106.493 253.042 114.928C250.917 123.363 245.637 131.466 237.6 134.853" stroke="black" stroke-width="1.2" stroke-miterlimit="10" stroke-linecap="round" stroke-linejoin="round"/>
<path d="M184.168 229.398C183.471 227.97 182.806 226.542 182.175 225.08C177.194 213.623 173.973 201.303 172.944 188.883C172.047 178.489 172.711 167.962 175.102 157.866C176.165 153.35 177.593 148.9 179.386 144.583C179.585 144.052 179.851 143.52 180.083 142.956C180.814 141.295 181.378 139.602 182.64 138.307C183.902 137.045 186.161 136.547 187.522 137.709C188.651 138.738 188.718 140.432 188.718 141.926C188.684 144.517 188.684 147.206 188.751 149.863C188.784 151.988 188.917 154.114 189.149 156.173C189.747 161.353 192.072 165.006 196.389 166.999C200.706 168.991 205.886 168.626 210.237 166.733C214.587 164.807 218.207 161.486 221.063 157.667C224.716 152.852 227.405 147.074 227.572 141.03C227.738 134.986 225.081 128.643 220.033 125.322" stroke="black" stroke-width="1.2" stroke-miterlimit="10" stroke-linecap="round" stroke-linejoin="round"/>
<path d="M192.769 150.295C202.985 150.295 211.266 142.013 211.266 131.798C211.266 121.582 202.985 113.301 192.769 113.301C182.553 113.301 174.272 121.582 174.272 131.798C174.272 142.013 182.553 150.295 192.769 150.295Z" fill="white" stroke="black" stroke-width="1.2" stroke-miterlimit="10" stroke-linecap="round" stroke-linejoin="round"/>
<path d="M184.533 131.167C186.991 133.857 188.485 135.849 190.942 138.539C194.13 134.288 197.85 129.838 201.038 125.588" stroke="black" stroke-width="1.2" stroke-miterlimit="10" stroke-linecap="round" stroke-linejoin="round"/>
<path d="M226.044 123.429C221.826 125.355 217.011 126.053 212.428 125.422C210.502 125.156 208.51 124.591 207.215 123.163C206.185 122.068 206.318 120.241 206.916 118.913C207.513 117.551 208.643 116.489 209.805 115.625C211.897 114.064 214.288 112.902 216.812 112.238C222.789 110.677 229.664 111.972 234.744 115.459C239.825 118.946 243.213 124.957 243.08 131.133L226.044 123.429Z" fill="#B880FF"/>
<path d="M243.047 131.1L239.028 129.274C237.6 125.754 235.11 122.599 231.955 120.474C226.874 116.987 220 115.692 214.056 117.252C211.532 117.917 209.141 119.079 207.082 120.64C206.883 120.806 206.683 120.972 206.484 121.138C206.451 120.407 206.65 119.61 206.949 118.946C207.547 117.618 208.676 116.555 209.871 115.658C211.93 114.098 214.321 112.935 216.845 112.271C222.789 110.71 229.697 112.005 234.745 115.492C239.792 118.946 243.179 124.923 243.047 131.1Z" fill="white"/>
<path d="M248.892 231.822C251.056 231.822 252.81 230.067 252.81 227.903C252.81 225.739 251.056 223.984 248.892 223.984C246.727 223.984 244.973 225.739 244.973 227.903C244.973 230.067 246.727 231.822 248.892 231.822Z" fill="white"/>
<path d="M246.5 148.468C237.135 151.856 229.663 158.863 224.483 167.364" stroke="black" stroke-width="1.2" stroke-miterlimit="10" stroke-linecap="round" stroke-linejoin="round"/>
<path d="M226.044 123.429C221.826 125.355 217.011 126.053 212.428 125.422C210.502 125.156 208.51 124.591 207.215 123.163C206.185 122.068 206.318 120.241 206.916 118.913C207.513 117.551 208.643 116.489 209.805 115.625C211.897 114.064 214.288 112.902 216.812 112.238C222.789 110.677 229.664 111.972 234.744 115.459C239.825 118.946 243.213 124.957 243.08 131.133" stroke="black" stroke-width="1.2" stroke-miterlimit="10" stroke-linecap="round" stroke-linejoin="round"/>
<path d="M179.485 40.3082C142.524 33.0355 103.172 31.4415 65.8127 35.9911C62.7575 36.3564 60.2669 38.6145 59.5695 41.6033C57.0789 52.6285 55.186 63.6205 53.9573 74.5462C56.4147 74.0148 58.9053 73.5167 61.396 73.0518C100.482 65.6131 142.491 65.9119 182.076 69.7973C183.039 63.4213 184.068 57.7094 185.197 50.8353C185.33 50.0715 185.463 49.2745 185.596 48.4775C185.629 48.3114 185.662 48.1122 185.695 47.9129C186.293 43.9943 184.234 41.3044 179.485 40.3082Z" stroke="black" stroke-width="1.2" stroke-miterlimit="10" stroke-linecap="round" stroke-linejoin="round"/>
</svg>
