<svg width="368" height="298" viewBox="0 0 368 298" fill="none" xmlns="http://www.w3.org/2000/svg">
<path d="M191.153 37.9078C119.937 37.9078 62.1958 87.0567 62.1958 158.306C62.1958 228.853 131.104 260.014 189.448 294.819C190.518 295.455 191.822 295.455 192.892 294.853C252.706 261.017 320.11 228.853 320.11 158.306C320.11 87.0901 262.369 37.9078 191.153 37.9078Z" fill="#FFE84D" stroke="white" stroke-width="2" stroke-miterlimit="10"/>
<path d="M306.469 206.619C304.095 200.668 301.755 194.716 299.381 188.765C286.174 177.698 272.968 166.598 259.727 155.531C252.238 149.546 242.609 142.993 230.706 137.309C205.162 125.139 181.424 122.865 166.545 122.765C156.481 150.616 146.451 178.467 136.387 206.351L154.642 224.707C175.439 225.342 177.411 228.819 177.411 228.819C177.411 228.819 189.047 248.278 215.193 252.291C229.101 254.43 243.411 253.628 257.889 255.3C277.983 241.458 295.369 225.877 306.469 206.619Z" fill="#FFE84D"/>
<path d="M299.381 188.765C286.174 177.698 272.967 166.598 259.727 155.531C252.238 149.546 242.609 142.993 230.706 137.309C205.162 125.139 181.424 122.865 166.545 122.765" stroke="black" stroke-width="1.2" stroke-miterlimit="10" stroke-linecap="round" stroke-linejoin="round"/>
<path d="M93.29 139.014C82.2565 143.327 80.986 149.446 80.986 150.382C80.9192 156.534 85.7337 166.631 110.442 161.148" fill="#FFE84D"/>
<path d="M93.29 139.014C82.2565 143.327 80.986 149.446 80.986 150.382C80.9192 156.534 85.7337 166.631 110.442 161.148" stroke="black" stroke-width="1.2" stroke-miterlimit="10" stroke-linecap="round" stroke-linejoin="round"/>
<path d="M113.886 42.3547C112.749 42.3547 111.612 42.5887 110.576 43.1237L61.0255 62.4489L55.7763 65.0568C44.7429 70.3729 45.9131 80.7042 49.5909 85.3516L152.469 220.862C154.174 223.102 156.749 224.306 159.39 224.306C161.028 224.306 162.667 223.838 164.138 222.901L217.733 187.862C230.138 179.771 227.162 174.321 224.487 170.81L217.767 161.883L119.971 45.3638C118.466 43.3912 116.193 42.3547 113.886 42.3547Z" fill="black" stroke="black" stroke-width="1.2" stroke-miterlimit="10" stroke-linecap="round" stroke-linejoin="round"/>
<path d="M118.232 35.5005C117.095 35.5005 115.959 35.7346 114.922 36.2695L56.5787 64.6221C51.6638 67.0294 50.1258 73.3151 53.4358 77.695L156.816 214.075C158.521 216.315 161.095 217.519 163.737 217.519C165.375 217.519 167.013 217.05 168.484 216.114L222.08 181.075C225.758 178.667 226.66 173.619 223.986 170.108L124.317 38.5431C122.813 36.5705 120.572 35.5005 118.232 35.5005Z" fill="white"/>
<mask id="mask0" mask-type="alpha" maskUnits="userSpaceOnUse" x="51" y="35" width="175" height="183">
<path d="M118.232 35.5005C117.095 35.5005 115.959 35.7346 114.922 36.2695L56.5787 64.6221C51.6638 67.0294 50.1258 73.3151 53.4358 77.695L156.816 214.075C158.521 216.315 161.095 217.519 163.737 217.519C165.375 217.519 167.013 217.05 168.484 216.114L222.08 181.075C225.758 178.667 226.66 173.619 223.986 170.108L124.317 38.5431C122.813 36.5705 120.572 35.5005 118.232 35.5005Z" fill="white"/>
</mask>
<g mask="url(#mask0)">
<path d="M116.356 123.537L102.412 116.738L79.1265 164.489L93.0702 171.288L116.356 123.537Z" fill="#FFE84D" stroke="#FFE84D" stroke-width="1.2" stroke-miterlimit="10" stroke-linecap="round" stroke-linejoin="round"/>
<path d="M132.114 129.51L123.009 125.07L99.723 172.821L108.828 177.261L132.114 129.51Z" fill="#FFE84D" stroke="#FFE84D" stroke-width="1.2" stroke-miterlimit="10" stroke-linecap="round" stroke-linejoin="round"/>
<path d="M187.174 109.057L178.08 104.61L149.259 163.722L130.904 154.795L126.457 163.889L146.351 173.585L153.907 177.263L187.174 109.057Z" fill="#FFE84D" stroke="#FFE84D" stroke-width="1.2" stroke-miterlimit="10" stroke-linecap="round" stroke-linejoin="round"/>
<path d="M151.6 216.315C150.898 216.315 150.162 216.148 149.46 215.813C147.019 214.643 146.016 211.701 147.22 209.294L174.469 153.391C178.949 144.163 190.117 140.318 199.344 144.832L234.651 162.051C237.092 163.221 238.095 166.163 236.892 168.57C235.721 171.011 232.779 172.014 230.372 170.81L195.065 153.592C190.685 151.452 185.402 153.291 183.262 157.671L156.013 213.54C155.144 215.312 153.405 216.315 151.6 216.315Z" fill="#FFE84D" stroke="#FFE84D" stroke-width="1.2" stroke-miterlimit="10" stroke-linecap="round" stroke-linejoin="round"/>
<path d="M119.204 96.7667L62.4233 92.9557L61.8949 100.829L118.675 104.64L119.204 96.7667Z" fill="#FFE84D" stroke="#FFE84D" stroke-width="1.2" stroke-miterlimit="10" stroke-linecap="round" stroke-linejoin="round"/>
</g>
<path d="M101.749 51.3486L77.3417 63.3516C75.0681 64.455 72.1927 64.3547 70.0529 63.0842L65.4055 60.3091L103.655 41.7863L104.624 46.1997C105.059 48.2058 103.922 50.3121 101.749 51.3486Z" fill="black"/>
<path d="M118.232 38.7771C119.603 38.7771 120.873 39.4124 121.709 40.5157L221.411 172.081C222.147 173.05 222.448 174.254 222.247 175.458C222.046 176.661 221.344 177.698 220.341 178.367L166.746 213.339C165.843 213.908 164.84 214.208 163.77 214.208C162.065 214.208 160.46 213.439 159.423 212.069L56.0437 75.7224C55.0407 74.4184 54.7063 72.7801 55.0741 71.1753C55.4419 69.5704 56.5118 68.2665 57.9829 67.5643L116.293 39.2452C116.928 38.9109 117.563 38.7771 118.232 38.7771ZM118.232 35.5005C117.095 35.5005 115.959 35.7346 114.922 36.2695L56.5787 64.6221C51.6638 67.0294 50.1258 73.3151 53.4358 77.695L156.816 214.075C158.521 216.315 161.095 217.519 163.737 217.519C165.375 217.519 167.013 217.05 168.484 216.114L222.08 181.075C225.758 178.667 226.66 173.619 223.986 170.108L124.317 38.5431C122.813 36.5705 120.572 35.5005 118.232 35.5005Z" fill="black"/>
<path d="M118.232 35.5005C117.095 35.5005 115.959 35.7346 114.922 36.2695L56.5787 64.6221C51.6638 67.0294 50.1258 73.3151 53.4358 77.695L156.816 214.075C158.521 216.315 161.095 217.519 163.737 217.519C165.375 217.519 167.013 217.05 168.484 216.114L222.08 181.075C225.758 178.667 226.66 173.619 223.986 170.108" stroke="#FFE84D" stroke-width="1.2" stroke-miterlimit="10" stroke-linecap="round" stroke-linejoin="round"/>
<path d="M58.5848 94.5795C57.6821 95.0476 57.3812 96.2178 58.0164 97.0536L72.4267 116.078C72.9283 116.713 73.7976 116.914 74.4997 116.546L74.6669 116.479C75.2687 116.145 75.4693 115.342 75.0346 114.807L59.9891 94.9473C59.6547 94.4792 59.0529 94.3454 58.5848 94.5795Z" fill="black" stroke="#FFE84D" stroke-width="1.2" stroke-miterlimit="10" stroke-linecap="round" stroke-linejoin="round"/>
<path d="M89.8128 136.674L89.9465 136.607C90.5483 136.272 90.7155 135.47 90.3143 134.935L82.1897 124.203C81.8553 123.768 81.2535 123.634 80.752 123.902C79.8492 124.37 79.6152 125.54 80.217 126.342L87.7064 136.239C88.1745 136.874 89.0772 137.075 89.8128 136.674Z" fill="black" stroke="#FFE84D" stroke-width="1.2" stroke-miterlimit="10" stroke-linecap="round" stroke-linejoin="round"/>
<path d="M158.186 2.29999C150.63 2.29999 143.475 3.90485 136.989 6.78022L136.922 6.81366C135.986 7.24831 124.117 12.9656 124.117 12.9656L125.521 13.7346C113.484 23.3304 105.794 38.1084 105.794 54.692C105.794 77.1935 137.424 129.987 151.533 152.421L147.487 164.057L149.393 164.859L160.56 158.339C161.129 158.005 161.664 157.503 162.065 156.868C174.168 137.911 210.645 78.8318 210.645 54.692C210.612 25.7376 187.141 2.29999 158.186 2.29999Z" fill="white"/>
<path d="M158.186 2.29999C150.63 2.29999 143.475 3.90485 136.989 6.78022L136.922 6.81366C135.986 7.24831 124.116 12.9656 124.116 12.9656L125.521 13.7346C125.186 14.0021 124.852 14.2696 124.518 14.5371H136.822L155.378 10.7255L170.122 3.63737C166.277 2.76807 162.299 2.29999 158.186 2.29999Z" fill="#FFE84D"/>
<path d="M190.484 83.5795L147.487 163.99L147.454 164.09L149.36 164.892L160.527 158.373C161.095 158.038 161.63 157.537 162.031 156.902C171.493 142.123 195.767 102.871 205.964 74.8865L190.484 83.5795Z" fill="#FFE84D"/>
<path d="M158.186 2.29999C150.63 2.29999 143.475 3.90485 136.989 6.78022L136.922 6.81366C135.986 7.24831 124.117 12.9656 124.117 12.9656L125.521 13.7346C113.484 23.3304 105.794 38.1084 105.794 54.692C105.794 77.1935 137.424 129.987 151.533 152.421L147.487 164.057L149.393 164.859L160.56 158.339C161.129 158.005 161.664 157.503 162.065 156.868C174.168 137.911 210.645 78.8318 210.645 54.692C210.612 25.7376 187.141 2.29999 158.186 2.29999Z" stroke="black" stroke-width="1.2" stroke-miterlimit="10" stroke-linecap="round" stroke-linejoin="round"/>
<path d="M199.879 60.4762C199.879 84.7831 163.168 144.297 150.965 163.354C149.159 166.196 145.013 166.196 143.208 163.354C131.038 144.263 94.293 84.7831 94.293 60.4762C94.293 31.3212 117.931 7.68292 147.086 7.68292C176.241 7.68292 199.879 31.3212 199.879 60.4762Z" fill="black" stroke="black" stroke-width="1.2" stroke-miterlimit="10" stroke-linecap="round" stroke-linejoin="round"/>
<path d="M147.086 103.44C171.054 103.44 190.484 84.0097 190.484 60.0415C190.484 36.0734 171.054 16.6434 147.086 16.6434C123.118 16.6434 103.688 36.0734 103.688 60.0415C103.688 84.0097 123.118 103.44 147.086 103.44Z" fill="#FFE84D"/>
<path d="M146.518 90.5673C147.153 91.4032 148.323 91.6706 149.259 91.1691L154.208 88.4609L175.639 76.7922L148.189 40.5826L120.539 56.2634L145.548 89.2634L146.518 90.5673Z" fill="black" stroke="black" stroke-width="1.2" stroke-miterlimit="10" stroke-linecap="round" stroke-linejoin="round"/>
<path d="M171.895 75.5552C171.861 73.9837 171.962 71.6433 172.764 68.9685C173.5 66.5278 174.569 64.6555 175.405 63.385C172.797 59.9412 170.19 56.4974 167.582 53.0537C160.861 44.1601 143.709 37.1054 143.843 38.5096L145.816 79.8682L145.849 89.6646L171.895 75.5552Z" fill="white" stroke="white" stroke-width="1.2" stroke-miterlimit="10" stroke-linecap="round" stroke-linejoin="round"/>
<path d="M123.114 42.923L151.901 28.6799L179.25 64.7892L151.132 79.8682L123.114 42.923Z" fill="black" stroke="black" stroke-width="1.2" stroke-miterlimit="10" stroke-linecap="round" stroke-linejoin="round"/>
<path d="M143.074 44.1602L152.135 39.5797" stroke="#FFE84D" stroke-width="1.2" stroke-miterlimit="10" stroke-linecap="round" stroke-linejoin="round"/>
<path d="M136.019 47.7042L139.898 45.765" stroke="#FFE84D" stroke-width="1.2" stroke-miterlimit="10" stroke-linecap="round" stroke-linejoin="round"/>
<path d="M153.004 46.9687L156.414 45.2301" stroke="#FFE84D" stroke-width="1.2" stroke-miterlimit="10" stroke-linecap="round" stroke-linejoin="round"/>
<path d="M140.332 53.4215L149.895 48.5401" stroke="#FFE84D" stroke-width="1.2" stroke-miterlimit="10" stroke-linecap="round" stroke-linejoin="round"/>
<path d="M146.518 90.5673C146.819 90.9351 147.186 91.2026 147.621 91.3363C146.919 89.9989 147.086 82.4093 151.132 79.9017L123.114 42.923C120.272 44.7285 119.536 52.0172 119.503 53.154C119.469 54.2908 119.837 55.3941 120.506 56.2634C128.931 67.3637 137.357 78.4974 145.782 89.5977L146.518 90.5673Z" fill="black" stroke="black" stroke-width="1.2" stroke-miterlimit="10" stroke-linecap="round" stroke-linejoin="round"/>
<path d="M151.132 79.8682L122.478 42.0537" stroke="#FFE84D" stroke-width="1.2" stroke-miterlimit="10" stroke-linecap="round" stroke-linejoin="round"/>
<path d="M146.551 214.275L149.493 215.747C168.852 219.157 167.18 232.196 160.794 234.838C156.448 236.61 135.919 232.33 136.387 216.85C139.797 215.947 143.174 215.111 146.551 214.275Z" fill="#FFE84D"/>
<path d="M149.527 215.713L146.585 214.242C145.782 214.443 145.013 214.643 144.211 214.844L147.053 216.85C149.493 217.987 153.439 220.193 157.083 224.272C160.159 227.716 161.898 231.16 162.834 233.5C167.281 229.254 166.612 218.756 149.527 215.713Z" fill="white"/>
<path d="M146.551 214.275L149.493 215.747C168.852 219.157 167.18 232.196 160.794 234.838C156.448 236.61 135.919 232.33 136.387 216.85C139.797 215.947 143.174 215.111 146.551 214.275Z" stroke="black" stroke-width="1.2" stroke-miterlimit="10" stroke-linecap="round" stroke-linejoin="round"/>
<path d="M125.922 190.971L130.804 191.573C155.01 200.601 151.399 212.67 150.229 214.944C147.956 219.224 122.579 221.029 120.104 196.053C122.01 194.382 123.983 192.677 125.922 190.971Z" fill="#FFE84D"/>
<path d="M130.803 191.573L127.192 191.105L128.73 193.546C133.177 195.619 149.293 206.251 149.527 215.713C149.828 215.479 150.062 215.212 150.229 214.944C151.399 212.671 154.977 200.634 130.803 191.573Z" fill="white"/>
<path d="M125.922 190.971L130.804 191.573C155.01 200.601 151.399 212.67 150.229 214.944C147.956 219.224 122.579 221.029 120.104 196.053C122.01 194.382 123.983 192.677 125.922 190.971Z" stroke="black" stroke-width="1.2" stroke-miterlimit="10" stroke-linecap="round" stroke-linejoin="round"/>
<path d="M109.673 164.358C111.311 165.093 128.731 177.163 129.7 186.826C130.068 190.57 129.232 192.744 128.263 193.613C121.877 199.464 112.448 194.582 107.834 187.06C103.22 179.537 102.083 169.841 107.633 161.75L109.673 164.358Z" fill="#FFE84D"/>
<path d="M113.819 167.166C116.727 169.373 128.898 187.461 127.36 194.348C127.661 194.114 127.961 193.88 128.262 193.613C129.199 192.743 130.068 190.57 129.7 186.826C128.964 179.737 119.536 171.446 113.819 167.166Z" fill="white"/>
<path d="M109.673 164.358C111.311 165.093 128.731 177.163 129.7 186.826C130.068 190.57 129.232 192.744 128.263 193.613C121.877 199.464 112.448 194.582 107.834 187.06C103.22 179.537 102.083 169.841 107.633 161.75L109.673 164.358Z" stroke="black" stroke-width="1.2" stroke-miterlimit="10" stroke-linecap="round" stroke-linejoin="round"/>
<path d="M298.478 186.491C273.97 169.005 264.007 154.661 240.202 144.564C230.907 140.619 210.612 140.619 202.053 146.169C189.515 154.294 180.22 173.652 175.773 181.576C173.767 185.154 174.402 189.734 177.445 192.476C177.779 192.777 178.08 192.977 178.348 193.145C185.268 196.889 195.834 189.734 214.691 175.19C223.484 174.054 230.271 216.281 263.706 215.713C263.706 215.713 296.004 188.464 298.478 186.491Z" fill="#FFE84D"/>
<path d="M294.132 183.315C272.7 167.266 262.569 154.026 240.168 144.531C230.873 140.585 210.578 140.585 202.019 146.136C189.481 154.26 180.186 173.619 175.74 181.543C173.734 185.12 174.369 189.701 177.411 192.443C170.925 182.813 201.852 150.549 210.578 148.71C247.758 139.014 273.135 179.938 294.132 183.315Z" fill="white"/>
<path d="M298.478 186.491C273.97 169.005 264.007 154.661 240.202 144.564C230.907 140.619 210.612 140.619 202.053 146.169C189.515 154.294 180.22 173.652 175.773 181.576C173.767 185.154 174.402 189.734 177.445 192.476C177.779 192.777 178.08 192.977 178.348 193.145C185.268 196.889 195.834 189.734 214.691 175.19C223.484 174.054 230.271 216.281 263.706 215.713" stroke="black" stroke-width="1.2" stroke-miterlimit="10" stroke-linecap="round" stroke-linejoin="round"/>
<path d="M76.2717 59.1388L88.0073 53.4215" stroke="#FFE84D" stroke-width="1.2" stroke-miterlimit="10" stroke-linecap="round" stroke-linejoin="round"/>
<path d="M94.7945 47.537C93.9252 50.9473 93.8583 51.8166 93.3903 56.5643C92.9222 61.5795 93.524 66.1935 94.1927 69.3698" stroke="white" stroke-width="1.2" stroke-miterlimit="10" stroke-linecap="round" stroke-linejoin="round"/>
<path d="M165.174 225.944C175.439 227.081 176.977 229.087 176.977 229.12C177.11 229.321 189.047 248.847 215.126 252.825C222.749 253.996 230.639 254.297 238.296 254.597C244.515 254.832 250.867 255.066 257.253 255.768C257.721 255.467 258.156 255.132 258.624 254.831C251.803 254.029 245.016 253.762 238.363 253.494C230.74 253.193 222.882 252.892 215.326 251.756C189.749 247.81 178.047 228.753 177.946 228.552C177.779 228.251 176.107 225.944 164.573 224.774" fill="black"/>
<path d="M274.84 242.594C291.323 228.953 304.764 213.373 312.42 194.482C306.034 191.205 292.36 181.61 288.481 178.968C294.834 191.272 285.94 223.67 274.84 242.594Z" fill="black"/>
</svg>
