<svg width="368" height="298" viewBox="0 0 368 298" fill="none" xmlns="http://www.w3.org/2000/svg">
<path d="M294.165 111.233C295.26 92.5233 293.253 73.6308 288.051 55.4686C287.686 54.2821 286.774 53.2782 285.496 52.9132C267.337 47.7109 248.447 45.703 229.74 46.7982L215.231 32.2867C197.892 14.9459 169.786 14.9459 152.448 32.2867L137.938 46.7982C119.231 45.703 100.342 47.7109 82.1822 52.9132C80.9959 53.2782 79.9921 54.1908 79.6271 55.4686C74.4256 73.6308 72.418 92.5233 73.5131 111.233L59.0037 125.745C41.6654 143.085 41.6654 171.196 59.0037 188.537L73.5131 203.048C72.418 221.758 74.4256 240.65 79.6271 258.813C79.9921 259.999 80.9047 261.003 82.1822 261.368C100.342 266.57 119.231 268.578 137.938 267.483L152.448 281.994C169.786 299.335 197.892 299.335 215.231 281.994L229.74 267.483C248.447 268.578 267.337 266.57 285.496 261.368C286.682 261.003 287.686 260.09 288.051 258.813C293.253 240.65 295.26 221.758 294.165 203.048L308.675 188.537C326.013 171.196 326.013 143.085 308.675 125.745L294.165 111.233Z" fill="#6EDBFF" stroke="white" stroke-width="2" stroke-linecap="round" stroke-linejoin="round"/>
<path d="M149.123 213.571C149.123 226.1 133.69 236.231 114.644 236.231C95.5971 236.231 80.1641 226.066 80.1641 213.571V213.808V141.978H148.988L149.123 213.571Z" fill="white" stroke="black" stroke-width="1.2" stroke-miterlimit="10" stroke-linecap="round" stroke-linejoin="round"/>
<path d="M123.795 235.421V185.44C123.795 185.44 124.606 165.719 104.073 163.321C123.356 162.308 141.254 157.546 141.254 157.546L141.491 227.856C141.491 227.856 133.892 233.631 123.795 235.421Z" fill="#6EDBFF"/>
<path d="M149.123 213.571C149.123 226.1 133.69 236.231 114.644 236.231C95.5971 236.231 80.1641 226.066 80.1641 213.571V213.808V141.978H148.988L149.123 213.571Z" stroke="black" stroke-width="1.2" stroke-miterlimit="10" stroke-linecap="round" stroke-linejoin="round"/>
<path d="M144.835 116.718L107.518 112.531L62.2998 136.237L130.347 169.13L140.005 162.578L144.835 116.718Z" fill="white" stroke="black" stroke-width="1.2" stroke-miterlimit="10" stroke-linecap="round" stroke-linejoin="round"/>
<path d="M68.8851 159.91C68.8851 159.91 74.8625 156.094 76.3146 155.79C77.429 155.554 85.2975 159.842 92.0854 161.193C98.6706 162.51 109.173 164.435 119.473 163.186C129.773 161.936 123.222 148.327 123.222 148.327L69.5943 137.993C69.5943 137.993 62.6714 139.918 62.6714 140.593C62.6714 141.269 68.8851 159.91 68.8851 159.91Z" fill="white"/>
<path d="M230.746 230.963C230.746 242.783 212.983 251.968 186.811 251.968C160.639 251.968 139.431 242.378 139.431 230.592V230.558V99.9005L230.78 100.272L230.746 230.963Z" fill="white" stroke="black" stroke-width="1.2" stroke-miterlimit="10" stroke-linecap="round" stroke-linejoin="round"/>
<path d="M230.004 230.592C229.733 235.184 232.064 238.19 228.112 241.196C214.537 249.301 210.214 249.807 196.807 251.394L196.571 145.288C196.503 135.697 189.479 123.607 173.776 123.168C192.417 122.864 209.741 113.24 230.443 105.27L230.004 230.592Z" fill="#6EDBFF"/>
<path d="M230.746 230.963C230.746 242.783 212.983 251.968 186.811 251.968C160.639 251.968 139.431 242.378 139.431 230.592V230.558V99.9005L230.78 100.272L230.746 230.963Z" stroke="black" stroke-width="1.2" stroke-miterlimit="10" stroke-linecap="round" stroke-linejoin="round"/>
<path d="M216.461 247.376V195.943L296.7 199.084L296.734 247.511C296.734 259.33 278.768 268.887 256.614 268.887C234.461 268.887 216.495 259.297 216.495 247.511V247.376H216.461Z" fill="white" stroke="black" stroke-width="1.2" stroke-miterlimit="10" stroke-linecap="round" stroke-linejoin="round"/>
<path d="M275.593 266.388V239.777C275.593 239.777 276.64 220.122 255.804 218.231C283.833 217.927 296.159 200.468 296.159 200.468V245.957C296.159 245.99 299.942 259.6 275.593 266.388Z" fill="#6EDBFF"/>
<path d="M72.3965 119.926C72.3965 119.926 79.522 120.432 83.5069 111.787C87.4918 103.142 94.7187 96.6243 102.79 100.339C110.861 104.054 112.381 115.198 104.85 121.682C97.2852 128.2 78.7115 131.036 72.3965 119.926Z" fill="black" stroke="black" stroke-width="1.2" stroke-miterlimit="10" stroke-linecap="round" stroke-linejoin="round"/>
<path d="M82.5286 113.813C86.4459 108.849 87.4928 109.119 87.2902 115.164C87.0876 121.243 86.0744 124.755 92.8285 123.641C99.5488 122.492 101.406 122.256 102.048 123.404L101.339 123.843C92.761 128.909 77.8682 129.787 72.1948 119.791C72.1948 119.791 78.2735 120.23 82.3935 113.982L82.5286 113.813Z" fill="#6EDBFF" stroke="black" stroke-width="1.2" stroke-miterlimit="10" stroke-linecap="round" stroke-linejoin="round"/>
<path d="M208.39 249.537C208.39 249.098 208.39 123.81 208.39 123.81" stroke="black" stroke-width="1.2" stroke-miterlimit="10" stroke-linecap="round" stroke-linejoin="round"/>
<path d="M222.743 180.814C222.743 180.375 222.743 113.408 222.743 113.408" stroke="black" stroke-width="1.2" stroke-miterlimit="10" stroke-linecap="round" stroke-linejoin="round"/>
<path d="M121.87 78.9625L106.201 107.093C104.952 109.356 102.081 110.166 99.8184 108.917C97.5558 107.667 96.7453 104.797 97.9948 102.534L121.33 60.6589" fill="#6EDBFF"/>
<path d="M121.87 78.9625L106.201 107.093C104.952 109.356 102.081 110.166 99.8184 108.917C97.5558 107.667 96.7453 104.797 97.9948 102.534L121.33 60.6589" stroke="black" stroke-width="1.2" stroke-miterlimit="10" stroke-linecap="round" stroke-linejoin="round"/>
<path d="M203.696 187.366L243.41 155.993L309.026 167.441C312.571 168.15 315.442 169.366 317.367 171.865C318.853 173.79 319.765 176.221 319.798 178.822C319.832 180.544 319.461 182.199 318.785 183.651L288.223 218.671" fill="white"/>
<path d="M203.696 187.366L243.41 155.993L309.026 167.441C312.571 168.15 315.442 169.366 317.367 171.865C318.853 173.79 319.765 176.221 319.798 178.822C319.832 180.544 319.461 182.199 318.785 183.651L288.223 218.671" stroke="black" stroke-width="1.2" stroke-miterlimit="10" stroke-linecap="round" stroke-linejoin="round"/>
<path d="M203.696 187.366L243.41 155.993L309.026 167.441C312.571 168.15 315.442 169.366 317.367 171.865C318.853 173.79 319.765 176.221 319.798 178.822C319.832 180.544 319.461 182.199 318.785 183.651L288.223 218.671" fill="white"/>
<path d="M203.696 187.366L243.41 155.993L309.026 167.441C312.571 168.15 315.442 169.366 317.367 171.865C318.853 173.79 319.765 176.221 319.798 178.822C319.832 180.544 319.461 182.199 318.785 183.651L288.223 218.671" stroke="black" stroke-width="1.2" stroke-miterlimit="10" stroke-linecap="round" stroke-linejoin="round"/>
<path d="M282.415 200.637L288.797 194.288C289.506 193.579 289.236 192.329 288.291 191.992L283.63 190.337L300.752 166.529C304.332 167.17 308.958 168.015 309.937 168.217C310.782 168.42 311.558 168.656 312.301 168.927C312.639 169.062 312.943 169.197 313.247 169.366C315.307 170.581 322.635 175.613 318.954 183.279C315.476 190.54 288.527 217.894 288.527 217.894C288.527 217.894 292.411 205.905 282.415 200.637Z" fill="#6EDBFF"/>
<path d="M288.224 218.704L316.76 186.555C316.76 186.555 319.36 183.819 319.799 181.016C320.305 177.707 319.9 172.337 313.214 168.724" stroke="black" stroke-width="1.2" stroke-miterlimit="10" stroke-linecap="round" stroke-linejoin="round"/>
<path d="M126.97 94.2269L167.258 73.8296L242.397 79.1653C246.45 79.9758 249.523 83.9945 249.523 88.8574C249.523 92.5384 247.733 95.7803 245.133 97.4688L204.878 126.005" fill="white"/>
<path d="M126.97 94.2269L167.258 73.8296L242.397 79.1653C246.45 79.9758 249.523 83.9945 249.523 88.8574C249.523 92.5384 247.733 95.7803 245.133 97.4688L204.878 126.005" stroke="black" stroke-width="1.2" stroke-miterlimit="10" stroke-linecap="round" stroke-linejoin="round"/>
<path d="M203.628 99.9342L243.849 79.5369C243.849 79.5369 255.128 85.987 246.956 96.1519C238.108 103.176 204.878 126.005 204.878 126.005C204.878 126.005 212.341 120.534 210.754 110.2C209.842 104.493 203.628 99.9342 203.628 99.9342Z" fill="#6EDBFF"/>
<path d="M131.934 104.392C133.386 102.973 135.379 103.311 136.392 105.101C137.641 107.364 137.168 110.606 135.311 112.362C133.015 114.557 129.908 114.05 128.354 111.247C126.43 107.735 127.172 102.669 130.009 99.9003C133.589 96.4557 138.452 97.2324 140.883 101.656C143.923 107.161 142.774 114.793 138.317 119.082C138.317 119.082 134.062 123.067 128.895 120.568C123.154 117.765 120.114 113.071 120.553 105.844C120.79 102.129 122.208 98.921 124.234 96.557C126.7 93.6528 130.482 92.2682 134.264 92.6397L198.529 98.921C202.48 99.4613 205.959 101.319 208.154 104.527C209.842 107.026 210.855 110.133 210.855 113.544C210.855 121.648 205.114 128.234 197.989 128.234C194.477 128.234 191.437 126.782 189.107 124.147C184.785 119.453 184.616 111.889 188.736 106.958C192.045 103.007 197.516 102.872 200.961 106.621C203.73 109.626 203.831 114.624 201.197 117.799C199.103 120.331 195.591 120.433 193.362 118.001C191.606 116.076 191.539 112.868 193.227 110.842C194.578 109.221 196.807 109.153 198.225 110.707" fill="white"/>
<path d="M131.934 104.392C133.386 102.973 135.379 103.311 136.392 105.101C137.641 107.364 137.168 110.606 135.311 112.362C133.015 114.557 129.908 114.05 128.354 111.247C126.43 107.735 127.172 102.669 130.009 99.9003C133.589 96.4557 138.452 97.2324 140.883 101.656C143.923 107.161 142.774 114.793 138.317 119.082C138.317 119.082 134.062 123.067 128.895 120.568C123.154 117.765 120.114 113.071 120.553 105.844C120.79 102.129 122.208 98.921 124.234 96.557C126.7 93.6528 130.482 92.2682 134.264 92.6397L198.529 98.921C202.48 99.4613 205.959 101.319 208.154 104.527C209.842 107.026 210.855 110.133 210.855 113.544C210.855 121.648 205.114 128.234 197.989 128.234C194.477 128.234 191.437 126.782 189.107 124.147C184.785 119.453 184.616 111.889 188.736 106.958C192.045 103.007 197.516 102.872 200.961 106.621C203.73 109.626 203.831 114.624 201.197 117.799C199.103 120.331 195.591 120.433 193.362 118.001C191.606 116.076 191.539 112.868 193.227 110.842C194.578 109.221 196.807 109.153 198.225 110.707" stroke="black" stroke-width="1.2" stroke-miterlimit="10" stroke-linecap="round" stroke-linejoin="round"/>
<path d="M153.074 100.677C167.359 103.277 185.122 105.709 186.203 110.707L190.829 104.358L153.074 100.677Z" fill="#6EDBFF"/>
<path d="M210.112 195.707C211.598 194.525 213.557 194.863 214.536 196.518C215.752 198.578 215.144 201.38 213.388 202.968C210.383 205.669 206.938 204.454 205.486 202.191C203.493 199.017 204.405 194.458 207.276 192.127C210.889 189.223 216.698 189.595 219.062 193.647C222.033 198.679 220.818 205.467 216.292 209.114C216.292 209.114 212.882 211.714 207.917 210.667C202.176 209.452 197.347 203.339 198.495 196.011C199.002 192.735 200.454 190.439 202.514 188.379C205.013 185.88 208.795 184.799 212.578 185.272L277.282 198.983C281.233 199.624 284.677 201.414 286.839 204.386C288.493 206.682 289.473 209.519 289.439 212.558C289.338 219.819 283.529 225.425 276.471 225.155C272.959 225.02 269.953 223.568 267.657 221.136C263.402 216.746 263.301 209.992 267.488 205.771C270.832 202.36 276.269 202.461 279.679 205.973C282.415 208.776 282.449 213.268 279.781 215.969C277.653 218.131 274.141 218.097 271.98 215.834C270.224 214.044 270.19 211.174 271.912 209.452C273.263 208.067 275.526 208.101 276.91 209.519" fill="white"/>
<path d="M210.112 195.707C211.598 194.525 213.557 194.863 214.536 196.518C215.752 198.578 215.144 201.38 213.388 202.968C210.383 205.669 206.938 204.454 205.486 202.191C203.493 199.017 204.405 194.458 207.276 192.127C210.889 189.223 216.698 189.595 219.062 193.647C222.033 198.679 220.818 205.467 216.292 209.114C216.292 209.114 212.882 211.714 207.917 210.667C202.176 209.452 197.347 203.339 198.495 196.011C199.002 192.735 200.454 190.439 202.514 188.379C205.013 185.88 208.795 184.799 212.578 185.272L277.282 198.983C281.233 199.624 284.677 201.414 286.839 204.386C288.493 206.682 289.473 209.519 289.439 212.558C289.338 219.819 283.529 225.425 276.471 225.155C272.959 225.02 269.953 223.568 267.657 221.136C263.402 216.746 263.301 209.992 267.488 205.771C270.832 202.36 276.269 202.461 279.679 205.973C282.415 208.776 282.449 213.268 279.781 215.969C277.653 218.131 274.141 218.097 271.98 215.834C270.224 214.044 270.19 211.174 271.912 209.452C273.263 208.067 275.526 208.101 276.91 209.519" stroke="black" stroke-width="1.2" stroke-miterlimit="10" stroke-linecap="round" stroke-linejoin="round"/>
<path d="M238.344 196.956C244.49 199.151 264.111 204.285 265.023 209.587L268.771 203.778L238.344 196.956Z" fill="#6EDBFF"/>
<path d="M210.112 195.707C211.598 194.525 213.557 194.863 214.536 196.518C215.752 198.578 215.144 201.38 213.388 202.968C210.383 205.669 206.938 204.454 205.486 202.191C203.493 199.017 204.405 194.458 207.276 192.127C210.889 189.223 216.698 189.595 219.062 193.647C222.033 198.679 220.818 205.467 216.292 209.114C216.292 209.114 212.882 211.714 207.917 210.667C202.176 209.452 197.347 203.339 198.495 196.011C199.002 192.735 200.454 190.439 202.514 188.379C205.013 185.88 208.795 184.799 212.578 185.272L277.282 198.983C281.233 199.624 284.677 201.414 286.839 204.386C288.493 206.682 289.473 209.519 289.439 212.558C289.338 219.819 283.529 225.425 276.471 225.155C272.959 225.02 269.953 223.568 267.657 221.136C263.402 216.746 263.301 209.992 267.488 205.771C270.832 202.36 276.269 202.461 279.679 205.973C282.415 208.776 282.449 213.268 279.781 215.969C277.653 218.131 274.141 218.097 271.98 215.834C270.224 214.044 270.19 211.174 271.912 209.452C273.263 208.067 275.526 208.101 276.91 209.519" stroke="black" stroke-width="1.2" stroke-miterlimit="10" stroke-linecap="round" stroke-linejoin="round"/>
<path d="M65.474 146.706C67.1626 144.95 69.0875 145.321 69.6278 146.942C70.337 149.07 69.898 151.67 68.3107 153.19C66.3183 155.081 62.9075 154.709 61.5567 152.278C59.8682 149.239 60.7124 144.207 63.2114 141.843C66.3183 138.871 71.4176 139.243 73.7478 143.835C76.213 148.664 75.0986 154.507 71.215 158.222C69.1212 160.282 66.6222 161.261 63.9206 160.923C58.4498 160.214 54.7688 153.865 55.6806 146.74C56.0859 143.565 57.3354 140.762 59.0914 138.702C61.219 136.203 64.4947 134.988 67.7704 135.291L125.889 145.051C129.401 145.693 132.339 147.111 134.231 149.914C135.716 152.075 136.561 154.777 136.561 157.715C136.561 164.739 131.596 170.413 125.45 170.413C122.411 170.413 119.777 169.129 117.751 166.9C114.002 162.848 113.867 156.297 117.413 152.042C120.25 148.631 125.011 148.496 127.983 151.738C130.381 154.338 130.482 158.661 128.186 161.396C126.362 163.591 123.323 163.659 121.432 161.599C119.912 159.944 119.844 157.175 121.296 155.419C122.478 154.034 124.403 153.966 125.619 155.283" fill="white"/>
<path d="M65.474 146.706C67.1626 144.95 69.0875 145.321 69.6278 146.942C70.337 149.07 69.898 151.67 68.3107 153.19C66.3183 155.081 62.9075 154.709 61.5567 152.278C59.8682 149.239 60.7124 144.207 63.2114 141.843C66.3183 138.871 71.4176 139.243 73.7478 143.835C76.213 148.664 75.0986 154.507 71.215 158.222C69.1212 160.282 66.6222 161.261 63.9206 160.923C58.4498 160.214 54.7688 153.865 55.6806 146.74C56.0859 143.565 57.3354 140.762 59.0914 138.702C61.219 136.203 64.4947 134.988 67.7704 135.291L125.889 145.051C129.401 145.693 132.339 147.111 134.231 149.914C135.716 152.075 136.561 154.777 136.561 157.715C136.561 164.739 131.596 170.413 125.45 170.413C122.411 170.413 119.777 169.129 117.751 166.9C114.002 162.848 113.867 156.297 117.413 152.042C120.25 148.631 125.011 148.496 127.983 151.738C130.381 154.338 130.482 158.661 128.186 161.396C126.362 163.591 123.323 163.659 121.432 161.599C119.912 159.944 119.844 157.175 121.296 155.419C122.478 154.034 124.403 153.966 125.619 155.283" stroke="black" stroke-width="1.2" stroke-miterlimit="10" stroke-linecap="round" stroke-linejoin="round"/>
<path d="M96.9146 146.064C97.0834 146.064 113.597 149.677 115.961 154.304C117.346 152.447 119.338 149.441 119.338 149.441L96.9146 146.064Z" fill="#6EDBFF"/>
<path d="M65.474 146.706C67.1626 144.95 69.0875 145.321 69.6278 146.942C70.337 149.07 69.898 151.67 68.3107 153.19C66.3183 155.081 62.9075 154.709 61.5567 152.278C59.8682 149.239 60.7124 144.207 63.2114 141.843C66.3183 138.871 71.4176 139.243 73.7478 143.835C76.213 148.664 75.0986 154.507 71.215 158.222C69.1212 160.282 66.6222 161.261 63.9206 160.923C58.4498 160.214 54.7688 153.865 55.6806 146.74C56.0859 143.565 57.3354 140.762 59.0914 138.702C61.219 136.203 64.4947 134.988 67.7704 135.291L125.889 145.051C129.401 145.693 132.339 147.111 134.231 149.914C135.716 152.075 136.561 154.777 136.561 157.715C136.561 164.739 131.596 170.413 125.45 170.413C122.411 170.413 119.777 169.129 117.751 166.9C114.002 162.848 113.867 156.297 117.413 152.042C120.25 148.631 125.011 148.496 127.983 151.738C130.381 154.338 130.482 158.661 128.186 161.396C126.362 163.591 123.323 163.659 121.432 161.599C119.912 159.944 119.844 157.175 121.296 155.419C122.478 154.034 124.403 153.966 125.619 155.283" stroke="black" stroke-width="1.2" stroke-miterlimit="10" stroke-linecap="round" stroke-linejoin="round"/>
<path d="M142.268 112.057C142.268 112.057 158.343 117.494 185.832 115.975" stroke="black" stroke-width="1.2" stroke-miterlimit="10" stroke-linecap="round" stroke-linejoin="round"/>
<path d="M140.444 116.482C140.444 116.482 156.046 127.052 187.115 121.513" stroke="black" stroke-width="1.2" stroke-miterlimit="10" stroke-linecap="round" stroke-linejoin="round"/>
<path d="M220.649 200.874C220.649 200.874 235.035 210.937 264.145 211.781" stroke="black" stroke-width="1.2" stroke-miterlimit="10" stroke-linecap="round" stroke-linejoin="round"/>
<path d="M218.792 206.311C218.792 206.311 232.266 220.832 265.496 218.029" stroke="black" stroke-width="1.2" stroke-miterlimit="10" stroke-linecap="round" stroke-linejoin="round"/>
<path d="M75.0649 149.306C75.0649 149.306 89.4849 155.722 114.948 157.14" stroke="black" stroke-width="1.2" stroke-miterlimit="10" stroke-linecap="round" stroke-linejoin="round"/>
<path d="M126.97 94.2269L167.258 73.8296L242.397 79.1653C246.45 79.9758 249.523 83.9945 249.523 88.8574C249.523 92.5384 247.733 95.7803 245.133 97.4688L204.878 126.005" stroke="black" stroke-width="1.2" stroke-miterlimit="10" stroke-linecap="round" stroke-linejoin="round"/>
<path d="M74.0518 154.304C77.0235 156.398 90.2278 164.469 115.488 163.186" stroke="black" stroke-width="1.2" stroke-miterlimit="10" stroke-linecap="round" stroke-linejoin="round"/>
<path d="M138.452 98.8197L191.91 104.459" stroke="black" stroke-width="1.2" stroke-miterlimit="10" stroke-linecap="round" stroke-linejoin="round"/>
<path d="M122.242 40.1266H150.441C151.048 40.1266 151.521 40.5994 151.521 41.2072V82.1707C151.521 82.8123 150.981 83.3189 150.339 83.2513L122.377 81.1576C121.803 81.1238 121.364 80.651 121.364 80.0769C121.331 74.471 121.263 47.0833 121.128 41.241C121.162 40.5994 121.634 40.1266 122.242 40.1266Z" fill="#6EDBFF" stroke="black" stroke-width="1.2" stroke-miterlimit="10" stroke-linecap="round" stroke-linejoin="round"/>
<path d="M124.133 43.301H148.516V79.6717L124.336 77.7468C124.336 77.7806 124.235 43.301 124.133 43.301Z" fill="black" stroke="black" stroke-width="1.2" stroke-miterlimit="10" stroke-linecap="round" stroke-linejoin="round"/>
<path d="M151.724 40.397C156.418 40.397 160.2 49.954 160.2 61.7398C160.2 73.5257 156.418 83.0827 151.724 83.0827" fill="black"/>
<path d="M151.724 40.397C156.418 40.397 160.2 49.954 160.2 61.7398C160.2 73.5257 156.418 83.0827 151.724 83.0827" stroke="black" stroke-width="1.2" stroke-miterlimit="10" stroke-linecap="round" stroke-linejoin="round"/>
<path d="M124.268 77.6791C128.726 77.6791 132.339 69.9795 132.339 60.5238C132.339 51.0343 128.726 43.3684 124.268 43.3684V77.6791Z" fill="#6EDBFF" stroke="black" stroke-width="1.2" stroke-miterlimit="10" stroke-linecap="round" stroke-linejoin="round"/>
<path d="M199.474 81.6979C191.944 81.8667 170.364 81.1575 170.364 81.1575L179.077 75.3828L199.474 81.6979Z" fill="#6EDBFF" stroke="black" stroke-width="1.2" stroke-miterlimit="10" stroke-linecap="round" stroke-linejoin="round"/>
<path d="M203.696 44.5846C191.066 43.7742 177.828 44.5847 170.973 45.4627L179.145 52.6558L203.696 44.5846Z" fill="#6EDBFF" stroke="black" stroke-width="1.2" stroke-miterlimit="10" stroke-linecap="round" stroke-linejoin="round"/>
<path d="M179.348 77.6119C188.736 83.2854 216.225 82.9139 222.979 77.6119V49.4475C217.17 42.5921 187.014 43.2337 179.348 49.4475V77.6119Z" fill="black" stroke="black" stroke-width="1.2" stroke-miterlimit="10" stroke-linecap="round" stroke-linejoin="round"/>
<path d="M163.273 77.5783C164.961 82.3399 176.477 82.4412 179.381 77.5783V49.4813C176.106 44.1119 166.988 44.1119 163.273 49.4813V77.5783Z" fill="#6EDBFF" stroke="black" stroke-width="1.2" stroke-miterlimit="10" stroke-linecap="round" stroke-linejoin="round"/>
<path d="M205.114 3.82361H201.197C194.342 3.82361 188.803 11.996 188.803 22.0596C188.803 32.1232 194.342 40.2956 201.197 40.2956H205.114" fill="#6EDBFF"/>
<path d="M205.114 3.82361H201.197C194.342 3.82361 188.803 11.996 188.803 22.0596C188.803 32.1232 194.342 40.2956 201.197 40.2956H205.114" stroke="black" stroke-width="1.2" stroke-miterlimit="10" stroke-linecap="round" stroke-linejoin="round"/>
<path d="M205.114 40.2619C211.959 40.2619 217.508 32.0974 217.508 22.0259C217.508 11.9544 211.959 3.78992 205.114 3.78992C198.27 3.78992 192.721 11.9544 192.721 22.0259C192.721 32.0974 198.27 40.2619 205.114 40.2619Z" fill="black" stroke="black" stroke-width="1.2" stroke-miterlimit="10" stroke-linecap="round" stroke-linejoin="round"/>
<path d="M205.114 26.416C206.756 26.416 208.086 24.4505 208.086 22.0259C208.086 19.6013 206.756 17.6357 205.114 17.6357C203.473 17.6357 202.143 19.6013 202.143 22.0259C202.143 24.4505 203.473 26.416 205.114 26.416Z" fill="white" stroke="black" stroke-width="1.2" stroke-miterlimit="10" stroke-linecap="round" stroke-linejoin="round"/>
<path d="M176.342 42.0516H173.134C164.59 42.0516 157.667 33.1024 157.667 22.0257C157.667 10.9491 164.59 2.03369 173.134 2.03369L176.241 2.10123" fill="#6EDBFF"/>
<path d="M176.342 42.0516H173.134C164.59 42.0516 157.667 33.1024 157.667 22.0257C157.667 10.9491 164.59 2.03369 173.134 2.03369L176.241 2.10123" stroke="black" stroke-width="1.2" stroke-miterlimit="10" stroke-linecap="round" stroke-linejoin="round"/>
<path d="M176.342 42.0516C184.884 42.0516 191.809 33.0858 191.809 22.0258C191.809 10.9659 184.884 2 176.342 2C167.8 2 160.875 10.9659 160.875 22.0258C160.875 33.0858 167.8 42.0516 176.342 42.0516Z" fill="black" stroke="black" stroke-width="1.2" stroke-miterlimit="10" stroke-linecap="round" stroke-linejoin="round"/>
<path d="M176.342 26.6186C178.3 26.6186 179.888 24.5624 179.888 22.0259C179.888 19.4894 178.3 17.4331 176.342 17.4331C174.383 17.4331 172.796 19.4894 172.796 22.0259C172.796 24.5624 174.383 26.6186 176.342 26.6186Z" fill="white" stroke="black" stroke-width="1.2" stroke-miterlimit="10" stroke-linecap="round" stroke-linejoin="round"/>
<path d="M71.8228 141.269L120.722 149.678" stroke="black" stroke-width="1.2" stroke-miterlimit="10" stroke-linecap="round" stroke-linejoin="round"/>
<path d="M217.137 145.76L228.247 137.723C228.754 137.351 228.855 136.676 228.484 136.169C228.112 135.663 227.437 135.561 226.93 135.933L214.131 145.422C213.625 145.794 213.524 146.469 213.895 146.976C213.996 147.145 214.165 147.246 214.334 147.314" fill="black"/>
<path d="M217.137 145.76L228.247 137.723C228.754 137.351 228.855 136.676 228.484 136.169C228.112 135.663 227.437 135.561 226.93 135.933L214.131 145.422C213.625 145.794 213.524 146.469 213.895 146.976C213.996 147.145 214.165 147.246 214.334 147.314" stroke="black" stroke-width="1.2" stroke-miterlimit="10" stroke-linecap="round" stroke-linejoin="round"/>
<path d="M225.039 152.616L216.022 150.961C214.773 150.691 214.098 148.935 214.503 147.077C214.908 145.186 216.225 143.903 217.475 144.173L226.458 145.828" fill="white"/>
<path d="M225.039 152.616L216.022 150.961C214.773 150.691 214.098 148.935 214.503 147.077C214.908 145.186 216.225 143.903 217.475 144.173L226.458 145.828" stroke="black" stroke-width="1.2" stroke-miterlimit="10" stroke-linecap="round" stroke-linejoin="round"/>
<path d="M236.048 145.389L225.579 143.464C223.519 143.058 221.324 145.254 220.716 148.36C220.108 151.467 221.594 154.642 224.262 155.182" fill="black"/>
<path d="M236.048 145.389L225.579 143.464C223.519 143.058 221.324 145.254 220.716 148.36C220.108 151.467 221.594 154.642 224.262 155.182" stroke="black" stroke-width="1.2" stroke-miterlimit="10" stroke-linecap="round" stroke-linejoin="round"/>
<path d="M229.294 155.419L225.444 153.663C225.005 150.286 227.403 145.727 230.037 143.566L230.78 142.958C231.185 142.62 231.658 142.654 231.658 142.654L305.514 154.406L299.199 165.82" fill="black"/>
<path d="M229.294 155.419L225.444 153.663C225.005 150.286 227.403 145.727 230.037 143.566L230.78 142.958C231.185 142.62 231.658 142.654 231.658 142.654L305.514 154.406L299.199 165.82" stroke="black" stroke-width="1.2" stroke-miterlimit="10" stroke-linecap="round" stroke-linejoin="round"/>
<path d="M68.4458 160.214L76.3818 155.824" stroke="black" stroke-width="1.2" stroke-miterlimit="10" stroke-linecap="round" stroke-linejoin="round"/>
<path d="M109.106 82.6435C110.018 85.6828 112.686 87.5402 117.143 87.4051L121.365 79.8067L121.297 60.7603L109.106 82.6435Z" fill="white" stroke="black" stroke-width="1.2" stroke-miterlimit="10" stroke-linecap="round" stroke-linejoin="round"/>
<path d="M211.362 171.663L211.733 173.419C212.003 174.736 213.05 175.782 214.367 176.053L283.259 189.932C285.15 190.304 287.041 189.459 288.021 187.805L306.864 167.745L306.662 155.757C306.628 154.608 305.311 154.001 304.433 154.744L303.69 155.351C301.056 157.513 299.739 160.89 300.178 164.301L300.279 165.044" fill="black"/>
<path d="M211.362 171.663L211.733 173.419C212.003 174.736 213.05 175.782 214.367 176.053L283.259 189.932C285.15 190.304 287.041 189.459 288.021 187.805L306.864 167.745L306.662 155.757C306.628 154.608 305.311 154.001 304.433 154.744L303.69 155.351C301.056 157.513 299.739 160.89 300.178 164.301L300.279 165.044" stroke="black" stroke-width="1.2" stroke-miterlimit="10" stroke-linecap="round" stroke-linejoin="round"/>
<path d="M211.362 171.595L225.444 153.663L299.536 165.786L284.981 185.745L211.362 171.595Z" fill="#6EDBFF" stroke="black" stroke-width="1.2" stroke-miterlimit="10" stroke-linecap="round" stroke-linejoin="round"/>
<path d="M148.55 72.3437C143.957 72.3437 140.276 66.9067 140.276 60.1864C140.276 53.4661 143.991 48.0291 148.55 48.0291V72.3437Z" fill="white" stroke="black" stroke-width="1.2" stroke-miterlimit="10" stroke-linecap="round" stroke-linejoin="round"/>
<path d="M219.839 41.9839L217.407 37.7964C217.846 36.9184 219.197 35.939 219.974 35.939L229.159 35.9053C230.139 35.9053 230.983 36.5807 231.219 37.5263L233.381 47.1846C233.549 47.9613 231.996 49.6498 231.118 49.9875L224.668 48.5692" fill="black"/>
<path d="M219.839 41.9839L217.407 37.7964C217.846 36.9184 219.197 35.939 219.974 35.939L229.159 35.9053C230.139 35.9053 230.983 36.5807 231.219 37.5263L233.381 47.1846C233.549 47.9613 231.996 49.6498 231.118 49.9875L224.668 48.5692" stroke="black" stroke-width="1.2" stroke-miterlimit="10" stroke-linecap="round" stroke-linejoin="round"/>
<path d="M218.184 43.4363L217.137 38.9111C216.968 38.1343 217.542 37.3576 218.353 37.3576L227.538 37.3239C228.518 37.3239 229.362 37.9993 229.598 38.9448L231.76 48.6032C231.928 49.3799 231.321 50.1566 230.51 50.1228L223.047 49.9877" fill="white"/>
<path d="M218.184 43.4363L217.137 38.9111C216.968 38.1343 217.542 37.3576 218.353 37.3576L227.538 37.3239C228.518 37.3239 229.362 37.9993 229.598 38.9448L231.76 48.6032C231.928 49.3799 231.321 50.1566 230.51 50.1228L223.047 49.9877" stroke="black" stroke-width="1.2" stroke-miterlimit="10" stroke-linecap="round" stroke-linejoin="round"/>
<path d="M215.178 45.7325L220.986 41.3086C222.709 39.9916 225.14 40.3293 226.457 42.0516C227.774 43.7739 227.436 46.2053 225.714 47.5224L222.979 49.5824" fill="black"/>
<path d="M215.178 45.7325L220.986 41.3086C222.709 39.9916 225.14 40.3293 226.457 42.0516C227.774 43.7739 227.436 46.2053 225.714 47.5224L222.979 49.5824" stroke="black" stroke-width="1.2" stroke-miterlimit="10" stroke-linecap="round" stroke-linejoin="round"/>
<mask id="path-84-inside-1" fill="white">
<path d="M298.624 158.424C298.624 158.424 303.42 132.793 315.037 114.388C315.037 114.388 267.758 109.187 250.4 107.836C236.25 128.774 235.913 148.327 235.913 148.327"/>
</mask>
<path d="M298.624 158.424C298.624 158.424 303.42 132.793 315.037 114.388C315.037 114.388 267.758 109.187 250.4 107.836C236.25 128.774 235.913 148.327 235.913 148.327" fill="white"/>
<path d="M315.037 114.388L316.051 115.028L317.076 113.405L315.168 113.195L315.037 114.388ZM250.4 107.836L250.493 106.64L249.797 106.586L249.406 107.164L250.4 107.836ZM298.624 158.424C299.804 158.645 299.804 158.645 299.804 158.645C299.804 158.645 299.804 158.645 299.804 158.645C299.804 158.644 299.804 158.643 299.804 158.642C299.805 158.639 299.806 158.635 299.807 158.629C299.809 158.618 299.812 158.6 299.817 158.577C299.826 158.53 299.84 158.459 299.858 158.364C299.895 158.176 299.952 157.896 300.028 157.532C300.18 156.804 300.41 155.741 300.723 154.406C301.35 151.735 302.305 147.982 303.622 143.657C306.26 134.992 310.326 124.1 316.051 115.028L314.022 113.747C308.131 123.081 303.99 134.206 301.326 142.958C299.992 147.342 299.022 151.147 298.387 153.858C298.069 155.213 297.834 156.296 297.678 157.042C297.6 157.415 297.542 157.703 297.504 157.899C297.484 157.998 297.47 158.073 297.46 158.124C297.455 158.149 297.451 158.169 297.449 158.182C297.447 158.189 297.446 158.194 297.446 158.198C297.445 158.199 297.445 158.201 297.445 158.202C297.445 158.202 297.445 158.203 297.445 158.203C297.445 158.203 297.445 158.204 298.624 158.424ZM315.037 114.388C315.168 113.195 315.168 113.195 315.167 113.195C315.167 113.195 315.166 113.195 315.166 113.195C315.164 113.195 315.162 113.194 315.159 113.194C315.153 113.193 315.145 113.192 315.133 113.191C315.11 113.189 315.076 113.185 315.031 113.18C314.941 113.17 314.807 113.155 314.632 113.136C314.281 113.098 313.765 113.041 313.101 112.969C311.774 112.824 309.859 112.615 307.507 112.361C302.803 111.852 296.349 111.16 289.353 110.425C275.367 108.957 259.191 107.317 250.493 106.64L250.307 109.033C258.967 109.707 275.109 111.343 289.102 112.812C296.095 113.546 302.546 114.239 307.249 114.747C309.6 115.001 311.515 115.21 312.841 115.355C313.504 115.427 314.02 115.483 314.371 115.522C314.546 115.541 314.68 115.556 314.769 115.566C314.814 115.571 314.848 115.574 314.871 115.577C314.883 115.578 314.891 115.579 314.897 115.58C314.9 115.58 314.902 115.58 314.903 115.58C314.904 115.58 314.904 115.58 314.905 115.581C314.905 115.581 314.905 115.581 315.037 114.388ZM249.406 107.164C242.236 117.773 238.565 128.033 236.685 135.646C235.745 139.453 235.252 142.601 234.995 144.805C234.866 145.907 234.795 146.774 234.757 147.369C234.738 147.667 234.727 147.897 234.721 148.054C234.718 148.133 234.716 148.194 234.714 148.236C234.714 148.257 234.713 148.274 234.713 148.285C234.713 148.291 234.713 148.296 234.713 148.299C234.713 148.301 234.713 148.303 234.713 148.304C234.713 148.304 234.713 148.305 234.713 148.305C234.713 148.306 234.713 148.306 235.913 148.327C237.112 148.348 237.112 148.348 237.112 148.348C237.112 148.348 237.112 148.348 237.112 148.348C237.112 148.348 237.112 148.348 237.112 148.347C237.112 148.346 237.113 148.344 237.113 148.34C237.113 148.333 237.113 148.321 237.114 148.304C237.114 148.271 237.116 148.22 237.119 148.15C237.124 148.011 237.134 147.801 237.152 147.523C237.188 146.967 237.255 146.142 237.378 145.084C237.626 142.968 238.102 139.919 239.015 136.221C240.842 128.823 244.414 118.837 251.394 108.508L249.406 107.164Z" fill="#6EDBFF" mask="url(#path-84-inside-1)"/>
<path d="M251.143 115.806C254.588 116.245 254.419 117.596 257.897 118.035C261.342 118.474 261.511 117.123 264.989 117.596C268.433 118.035 268.265 119.386 271.743 119.825C275.188 120.264 275.356 118.913 278.835 119.386C282.279 119.825 282.11 121.176 285.589 121.615C289.033 122.054 289.202 120.703 292.681 121.176C296.125 121.615 295.956 122.965 299.435 123.404" stroke="#6EDBFF" stroke-width="1.2" stroke-miterlimit="10" stroke-linecap="round" stroke-linejoin="round"/>
<path d="M247.698 124.283L295.517 130.868" stroke="#6EDBFF" stroke-width="1.2" stroke-miterlimit="10" stroke-linecap="round" stroke-linejoin="round"/>
<path d="M245.639 131.915C245.808 131.949 248.171 133.671 252.123 134.245C254.081 134.549 256.58 133.536 259.079 133.873C261.241 134.177 263.334 135.866 265.665 136.17C267.893 136.508 270.392 135.494 272.621 135.798C274.951 136.136 277.045 137.791 279.206 138.095C281.705 138.466 284.204 137.453 286.163 137.723C290.249 138.297 289.371 139.547 292.748 140.02" stroke="#6EDBFF" stroke-width="1.2" stroke-miterlimit="10" stroke-linecap="round" stroke-linejoin="round"/>
<path d="M243.612 140.054C244.321 140.223 268.535 143.667 268.535 143.667" stroke="#6EDBFF" stroke-width="1.2" stroke-miterlimit="10" stroke-linecap="round" stroke-linejoin="round"/>
<path d="M109.139 82.6771C109.139 82.6771 110.119 87.7427 117.143 87.405" stroke="black" stroke-width="1.2" stroke-miterlimit="10" stroke-linecap="round" stroke-linejoin="round"/>
<path d="M275.83 158.019L267.083 150.792C262.288 151.906 256.344 151.13 253.947 149.137L241.013 152.852L275.83 158.019Z" fill="#6EDBFF" stroke="black" stroke-width="1.2" stroke-miterlimit="10" stroke-linecap="round" stroke-linejoin="round"/>
<path d="M211.734 78.2536H208.323V48.2993H211.734C214.503 48.2993 216.765 50.5619 216.765 53.3311V73.2218C216.765 75.991 214.503 78.2536 211.734 78.2536Z" fill="#6EDBFF" stroke="black" stroke-width="1.2" stroke-miterlimit="10" stroke-linecap="round" stroke-linejoin="round"/>
<path d="M209.336 77.2068L214.638 77.0041C218.251 77.0041 221.189 73.8635 221.189 70.0137V55.5937C221.189 51.7101 218.251 48.6033 214.638 48.6033L209.336 48.8059" stroke="#6EDBFF" stroke-width="1.2" stroke-miterlimit="10" stroke-linecap="round" stroke-linejoin="round"/>
<path d="M226.997 161.902L223.721 165.684L225.714 166.326L223.08 169.838L277.416 180.104L279.78 176.187L282.448 176.491L284.744 172.607L226.997 161.902Z" fill="black"/>
<path d="M238.817 168.589L241.687 164.773" stroke="#6EDBFF" stroke-width="1.2" stroke-miterlimit="10" stroke-linecap="round" stroke-linejoin="round"/>
<path d="M229.361 162.409L232.738 158.593L284.542 167.542L282.043 171.865" fill="black"/>
<path d="M229.361 162.409L232.738 158.593L284.542 167.542L282.043 171.865" stroke="#6EDBFF" stroke-width="1.2" stroke-miterlimit="10" stroke-linecap="round" stroke-linejoin="round"/>
<path d="M222.675 170.075L225.951 166.326" stroke="#6EDBFF" stroke-width="1.2" stroke-miterlimit="10" stroke-linecap="round" stroke-linejoin="round"/>
<path d="M226.896 162.037L285.117 172.506" stroke="#6EDBFF" stroke-width="1.2" stroke-miterlimit="10" stroke-linecap="round" stroke-linejoin="round"/>
<path d="M225.984 166.326L282.82 176.761" stroke="#6EDBFF" stroke-width="1.2" stroke-miterlimit="10" stroke-linecap="round" stroke-linejoin="round"/>
<path d="M223.688 165.887L225.984 166.326" stroke="#6EDBFF" stroke-width="1.2" stroke-miterlimit="10" stroke-linecap="round" stroke-linejoin="round"/>
<path d="M222.675 170.108L277.383 180.206" stroke="#6EDBFF" stroke-width="1.2" stroke-miterlimit="10" stroke-linecap="round" stroke-linejoin="round"/>
<path d="M276.302 170.919L279.004 166.597" stroke="#6EDBFF" stroke-width="1.2" stroke-miterlimit="10" stroke-linecap="round" stroke-linejoin="round"/>
<path d="M271.27 178.99L273.701 175.141" stroke="#6EDBFF" stroke-width="1.2" stroke-miterlimit="10" stroke-linecap="round" stroke-linejoin="round"/>
<path d="M282.82 176.761L285.116 172.506" stroke="#6EDBFF" stroke-width="1.2" stroke-miterlimit="10" stroke-linecap="round" stroke-linejoin="round"/>
<path d="M277.417 180.105L279.78 176.187" stroke="#6EDBFF" stroke-width="1.2" stroke-miterlimit="10" stroke-linecap="round" stroke-linejoin="round"/>
<path d="M270.831 169.906L273.634 165.651" stroke="#6EDBFF" stroke-width="1.2" stroke-miterlimit="10" stroke-linecap="round" stroke-linejoin="round"/>
<path d="M265.529 177.943L268.096 174.06" stroke="#6EDBFF" stroke-width="1.2" stroke-miterlimit="10" stroke-linecap="round" stroke-linejoin="round"/>
<path d="M276.572 175.613L279.274 171.459" stroke="#6EDBFF" stroke-width="1.2" stroke-miterlimit="10" stroke-linecap="round" stroke-linejoin="round"/>
<path d="M265.462 168.927L268.332 164.739" stroke="#6EDBFF" stroke-width="1.2" stroke-miterlimit="10" stroke-linecap="round" stroke-linejoin="round"/>
<path d="M260.092 176.896L262.625 173.114" stroke="#6EDBFF" stroke-width="1.2" stroke-miterlimit="10" stroke-linecap="round" stroke-linejoin="round"/>
<path d="M260.43 168.082L263.3 163.895" stroke="#6EDBFF" stroke-width="1.2" stroke-miterlimit="10" stroke-linecap="round" stroke-linejoin="round"/>
<path d="M255.061 175.917L257.661 172.135" stroke="#6EDBFF" stroke-width="1.2" stroke-miterlimit="10" stroke-linecap="round" stroke-linejoin="round"/>
<path d="M255.5 167.204L258.472 163.051" stroke="#6EDBFF" stroke-width="1.2" stroke-miterlimit="10" stroke-linecap="round" stroke-linejoin="round"/>
<path d="M249.928 175.039L252.663 171.223" stroke="#6EDBFF" stroke-width="1.2" stroke-miterlimit="10" stroke-linecap="round" stroke-linejoin="round"/>
<path d="M250.13 166.259L253.135 162.139" stroke="#6EDBFF" stroke-width="1.2" stroke-miterlimit="10" stroke-linecap="round" stroke-linejoin="round"/>
<path d="M244.491 173.992L247.192 170.277" stroke="#6EDBFF" stroke-width="1.2" stroke-miterlimit="10" stroke-linecap="round" stroke-linejoin="round"/>
<path d="M244.794 165.279L247.833 161.227" stroke="#6EDBFF" stroke-width="1.2" stroke-miterlimit="10" stroke-linecap="round" stroke-linejoin="round"/>
<path d="M238.986 173.013L241.789 169.264" stroke="#6EDBFF" stroke-width="1.2" stroke-miterlimit="10" stroke-linecap="round" stroke-linejoin="round"/>
<path d="M239.121 164.266L242.228 160.315" stroke="#6EDBFF" stroke-width="1.2" stroke-miterlimit="10" stroke-linecap="round" stroke-linejoin="round"/>
<path d="M233.144 171.932L236.048 168.218" stroke="#6EDBFF" stroke-width="1.2" stroke-miterlimit="10" stroke-linecap="round" stroke-linejoin="round"/>
<path d="M233.954 163.219L237.162 159.437" stroke="#6EDBFF" stroke-width="1.2" stroke-miterlimit="10" stroke-linecap="round" stroke-linejoin="round"/>
<path d="M227.639 170.885L230.645 167.204" stroke="#6EDBFF" stroke-width="1.2" stroke-miterlimit="10" stroke-linecap="round" stroke-linejoin="round"/>
<path d="M223.688 165.854L226.93 162.037" stroke="#6EDBFF" stroke-width="1.2" stroke-miterlimit="10" stroke-linecap="round" stroke-linejoin="round"/>
<path d="M228.45 166.698L231.624 162.916" stroke="#6EDBFF" stroke-width="1.2" stroke-miterlimit="10" stroke-linecap="round" stroke-linejoin="round"/>
<path d="M233.481 167.677L236.521 163.827" stroke="#6EDBFF" stroke-width="1.2" stroke-miterlimit="10" stroke-linecap="round" stroke-linejoin="round"/>
<path d="M244.254 169.67L247.226 165.752" stroke="#6EDBFF" stroke-width="1.2" stroke-miterlimit="10" stroke-linecap="round" stroke-linejoin="round"/>
<path d="M249.691 170.548L252.663 166.664" stroke="#6EDBFF" stroke-width="1.2" stroke-miterlimit="10" stroke-linecap="round" stroke-linejoin="round"/>
<path d="M254.892 171.594L257.796 167.643" stroke="#6EDBFF" stroke-width="1.2" stroke-miterlimit="10" stroke-linecap="round" stroke-linejoin="round"/>
<path d="M260.025 172.54L262.862 168.521" stroke="#6EDBFF" stroke-width="1.2" stroke-miterlimit="10" stroke-linecap="round" stroke-linejoin="round"/>
<path d="M265.462 173.587L268.265 169.535" stroke="#6EDBFF" stroke-width="1.2" stroke-miterlimit="10" stroke-linecap="round" stroke-linejoin="round"/>
<path d="M270.663 174.532L273.432 170.446" stroke="#6EDBFF" stroke-width="1.2" stroke-miterlimit="10" stroke-linecap="round" stroke-linejoin="round"/>
<path d="M189.85 53.2297H183.637V57.2484H189.85V53.2297Z" fill="#6EDBFF" stroke="black" stroke-width="1.2" stroke-miterlimit="10" stroke-linecap="round" stroke-linejoin="round"/>
<path d="M190.053 61.1321H183.839V65.1508H190.053V61.1321Z" fill="white" stroke="black" stroke-width="1.2" stroke-miterlimit="10" stroke-linecap="round" stroke-linejoin="round"/>
<path d="M158.545 48.8059C158.748 48.8059 169.183 47.8604 169.183 47.8604C172.121 47.8604 174.519 53.061 174.519 59.4774C174.519 65.6236 172.324 70.6553 169.555 71.0606L158.984 73.053" fill="black"/>
<path d="M158.545 48.8059C158.748 48.8059 169.183 47.8604 169.183 47.8604C172.121 47.8604 174.519 53.061 174.519 59.4774C174.519 65.6236 172.324 70.6553 169.555 71.0606L158.984 73.053" stroke="black" stroke-width="1.2" stroke-miterlimit="10" stroke-linecap="round" stroke-linejoin="round"/>
<path d="M93.2334 231.2C93.2334 230.761 93.2334 162.004 93.2334 162.004" stroke="black" stroke-width="1.2" stroke-miterlimit="10" stroke-linecap="round" stroke-linejoin="round"/>
<path d="M84.689 224.479C84.689 224.04 84.689 159.538 84.689 159.538" stroke="black" stroke-width="1.2" stroke-miterlimit="10" stroke-linecap="round" stroke-linejoin="round"/>
<path d="M105.965 235.319C105.965 234.88 105.965 163.422 105.965 163.422" stroke="black" stroke-width="1.2" stroke-miterlimit="10" stroke-linecap="round" stroke-linejoin="round"/>
<path d="M118.527 236.13C118.527 235.691 118.527 167.745 118.527 167.745" stroke="black" stroke-width="1.2" stroke-miterlimit="10" stroke-linecap="round" stroke-linejoin="round"/>
<path d="M131.225 233.361C131.225 232.922 131.225 168.69 131.225 168.69" stroke="black" stroke-width="1.2" stroke-miterlimit="10" stroke-linecap="round" stroke-linejoin="round"/>
<path d="M143.922 239.406C143.922 238.967 143.922 118.373 143.922 118.373" stroke="black" stroke-width="1.2" stroke-miterlimit="10" stroke-linecap="round" stroke-linejoin="round"/>
<path d="M151.622 244.775C151.622 244.336 151.622 120.973 151.622 120.973" stroke="black" stroke-width="1.2" stroke-miterlimit="10" stroke-linecap="round" stroke-linejoin="round"/>
<path d="M177.49 250.82C177.49 250.381 177.49 123.371 177.49 123.371" stroke="black" stroke-width="1.2" stroke-miterlimit="10" stroke-linecap="round" stroke-linejoin="round"/>
<path d="M163.104 249.165C163.104 248.726 163.104 123.371 163.104 123.371" stroke="black" stroke-width="1.2" stroke-miterlimit="10" stroke-linecap="round" stroke-linejoin="round"/>
<path d="M192.586 251.833C192.586 251.394 192.586 127.322 192.586 127.322" stroke="black" stroke-width="1.2" stroke-miterlimit="10" stroke-linecap="round" stroke-linejoin="round"/>
<path d="M230.239 263.416C230.239 262.977 230.239 214.416 230.239 214.416" stroke="black" stroke-width="1.2" stroke-miterlimit="10" stroke-linecap="round" stroke-linejoin="round"/>
<path d="M221.392 257.439C221.392 257 221.392 209.114 221.392 209.114" stroke="black" stroke-width="1.2" stroke-miterlimit="10" stroke-linecap="round" stroke-linejoin="round"/>
<path d="M242.701 267.537C242.701 267.098 242.701 217.388 242.701 217.388" stroke="black" stroke-width="1.2" stroke-miterlimit="10" stroke-linecap="round" stroke-linejoin="round"/>
<path d="M255.872 268.819C255.872 268.38 255.872 218.704 255.872 218.704" stroke="black" stroke-width="1.2" stroke-miterlimit="10" stroke-linecap="round" stroke-linejoin="round"/>
<path d="M269.481 267.604C269.481 267.165 269.481 222.825 269.481 222.825" stroke="black" stroke-width="1.2" stroke-miterlimit="10" stroke-linecap="round" stroke-linejoin="round"/>
<path d="M282.178 263.788C282.178 263.349 282.178 224.344 282.178 224.344" stroke="black" stroke-width="1.2" stroke-miterlimit="10" stroke-linecap="round" stroke-linejoin="round"/>
<path d="M291.465 257.743C291.465 257.304 291.465 215.057 291.465 215.057" stroke="black" stroke-width="1.2" stroke-miterlimit="10" stroke-linecap="round" stroke-linejoin="round"/>
<path d="M131.934 104.392C133.386 102.973 135.379 103.311 136.392 105.101C137.641 107.364 137.168 110.606 135.311 112.362C133.015 114.557 129.908 114.05 128.354 111.247C126.43 107.735 127.172 102.669 130.009 99.9003C133.589 96.4557 138.452 97.2324 140.883 101.656C143.923 107.161 142.774 114.793 138.317 119.082C138.317 119.082 134.062 123.067 128.895 120.568C123.154 117.765 120.114 113.071 120.553 105.844C120.79 102.129 122.208 98.921 124.234 96.557C126.7 93.6528 130.482 92.2682 134.264 92.6397L198.529 98.921C202.48 99.4613 205.959 101.319 208.154 104.527C209.842 107.026 210.855 110.133 210.855 113.544C210.855 121.648 205.114 128.234 197.989 128.234C194.477 128.234 191.437 126.782 189.107 124.147C184.785 119.453 184.616 111.889 188.736 106.958C192.045 103.007 197.516 102.872 200.961 106.621C203.73 109.626 203.831 114.624 201.197 117.799C199.103 120.331 195.591 120.433 193.362 118.001C191.606 116.076 191.539 112.868 193.227 110.842C194.578 109.221 196.807 109.153 198.225 110.707" stroke="black" stroke-width="1.2" stroke-miterlimit="10" stroke-linecap="round" stroke-linejoin="round"/>
<path d="M218.217 192.431L269.886 204.014" stroke="black" stroke-width="1.2" stroke-miterlimit="10" stroke-linecap="round" stroke-linejoin="round"/>
<path d="M296.7 247.511C296.7 259.331 278.734 268.888 256.581 268.888" stroke="black" stroke-width="1.2" stroke-miterlimit="10" stroke-linecap="round" stroke-linejoin="round"/>
<path d="M297.848 166.327C297.848 166.327 297.848 160.417 299.739 158.796C301.292 157.479 303.42 155.925 305.176 154.777C307.168 153.46 307.877 155.52 307.877 155.52" stroke="#6EDBFF" stroke-width="1.2" stroke-miterlimit="10"/>
</svg>
